<mxfile host="app.diagrams.net" modified="2022-10-12T08:11:28.418Z" agent="5.0 (Windows NT 10.0; Win64; x64) AppleWebKit/537.36 (KHTML, like Gecko) Chrome/106.0.0.0 Safari/537.36" etag="_9Aq1cfoBTlukOh9svZK" version="20.4.0" type="github">
  <diagram id="C5RBs43oDa-KdzZeNtuy" name="Page-1">
    <mxGraphModel dx="1364" dy="3147" grid="1" gridSize="10" guides="1" tooltips="1" connect="1" arrows="1" fold="1" page="1" pageScale="1" pageWidth="827" pageHeight="1169" math="0" shadow="0">
      <root>
        <mxCell id="WIyWlLk6GJQsqaUBKTNV-0" />
        <mxCell id="WIyWlLk6GJQsqaUBKTNV-1" parent="WIyWlLk6GJQsqaUBKTNV-0" />
        <mxCell id="zkfFHV4jXpPFQw0GAbJ--0" value="ApplicantRequestBase" style="swimlane;fontStyle=0;align=center;verticalAlign=top;childLayout=stackLayout;horizontal=1;startSize=26;horizontalStack=0;resizeParent=1;resizeLast=0;collapsible=1;marginBottom=0;rounded=0;shadow=0;strokeWidth=1;fontFamily=Verdana;fillColor=#dae8fc;strokeColor=#6c8ebf;" parent="WIyWlLk6GJQsqaUBKTNV-1" vertex="1">
          <mxGeometry x="120" y="120" width="320" height="220" as="geometry">
            <mxRectangle x="230" y="140" width="160" height="26" as="alternateBounds" />
          </mxGeometry>
        </mxCell>
        <mxCell id="zkfFHV4jXpPFQw0GAbJ--1" value="TradeName : TradeDescription" style="text;align=left;verticalAlign=top;spacingLeft=4;spacingRight=4;overflow=hidden;rotatable=0;points=[[0,0.5],[1,0.5]];portConstraint=eastwest;fontFamily=Verdana;" parent="zkfFHV4jXpPFQw0GAbJ--0" vertex="1">
          <mxGeometry y="26" width="320" height="26" as="geometry" />
        </mxCell>
        <mxCell id="zkfFHV4jXpPFQw0GAbJ--2" value="Organization : OldOrganization" style="text;align=left;verticalAlign=top;spacingLeft=4;spacingRight=4;overflow=hidden;rotatable=0;points=[[0,0.5],[1,0.5]];portConstraint=eastwest;rounded=0;shadow=0;html=0;fontFamily=Verdana;" parent="zkfFHV4jXpPFQw0GAbJ--0" vertex="1">
          <mxGeometry y="52" width="320" height="26" as="geometry" />
        </mxCell>
        <mxCell id="zkfFHV4jXpPFQw0GAbJ--3" value="DocumentId : long" style="text;align=left;verticalAlign=top;spacingLeft=4;spacingRight=4;overflow=hidden;rotatable=0;points=[[0,0.5],[1,0.5]];portConstraint=eastwest;rounded=0;shadow=0;html=0;fontFamily=Verdana;" parent="zkfFHV4jXpPFQw0GAbJ--0" vertex="1">
          <mxGeometry y="78" width="320" height="26" as="geometry" />
        </mxCell>
        <mxCell id="96hk8IAAOX7AO58MwP5Q-20" value="RequestType : ApplicantRequestType" style="text;strokeColor=none;fillColor=none;align=left;verticalAlign=top;spacingLeft=4;spacingRight=4;overflow=hidden;rotatable=0;points=[[0,0.5],[1,0.5]];portConstraint=eastwest;fontFamily=Verdana;" vertex="1" parent="zkfFHV4jXpPFQw0GAbJ--0">
          <mxGeometry y="104" width="320" height="26" as="geometry" />
        </mxCell>
        <mxCell id="96hk8IAAOX7AO58MwP5Q-19" value="InternalState : State" style="text;strokeColor=none;fillColor=none;align=left;verticalAlign=top;spacingLeft=4;spacingRight=4;overflow=hidden;rotatable=0;points=[[0,0.5],[1,0.5]];portConstraint=eastwest;fontFamily=Verdana;" vertex="1" parent="zkfFHV4jXpPFQw0GAbJ--0">
          <mxGeometry y="130" width="320" height="26" as="geometry" />
        </mxCell>
        <mxCell id="96hk8IAAOX7AO58MwP5Q-27" value="Link : string" style="text;strokeColor=none;fillColor=none;align=left;verticalAlign=top;spacingLeft=4;spacingRight=4;overflow=hidden;rotatable=0;points=[[0,0.5],[1,0.5]];portConstraint=eastwest;fontFamily=Verdana;" vertex="1" parent="zkfFHV4jXpPFQw0GAbJ--0">
          <mxGeometry y="156" width="320" height="26" as="geometry" />
        </mxCell>
        <mxCell id="zkfFHV4jXpPFQw0GAbJ--4" value="" style="line;html=1;strokeWidth=1;align=left;verticalAlign=middle;spacingTop=-1;spacingLeft=3;spacingRight=3;rotatable=0;labelPosition=right;points=[];portConstraint=eastwest;fontFamily=Verdana;" parent="zkfFHV4jXpPFQw0GAbJ--0" vertex="1">
          <mxGeometry y="182" width="320" height="8" as="geometry" />
        </mxCell>
        <mxCell id="zkfFHV4jXpPFQw0GAbJ--5" value="MakeOutNumber(int count. string postFix) : string" style="text;align=left;verticalAlign=top;spacingLeft=4;spacingRight=4;overflow=hidden;rotatable=0;points=[[0,0.5],[1,0.5]];portConstraint=eastwest;fontFamily=Verdana;" parent="zkfFHV4jXpPFQw0GAbJ--0" vertex="1">
          <mxGeometry y="190" width="320" height="26" as="geometry" />
        </mxCell>
        <mxCell id="96hk8IAAOX7AO58MwP5Q-0" value="TradeDescription" style="swimlane;fontStyle=0;align=center;verticalAlign=top;childLayout=stackLayout;horizontal=1;startSize=26;horizontalStack=0;resizeParent=1;resizeLast=0;collapsible=1;marginBottom=0;rounded=0;shadow=0;strokeWidth=1;fontFamily=Verdana;" vertex="1" collapsed="1" parent="WIyWlLk6GJQsqaUBKTNV-1">
          <mxGeometry x="-200" y="40" width="160" height="26" as="geometry">
            <mxRectangle x="-170" y="70" width="160" height="90" as="alternateBounds" />
          </mxGeometry>
        </mxCell>
        <mxCell id="96hk8IAAOX7AO58MwP5Q-1" value="Street" style="text;align=left;verticalAlign=top;spacingLeft=4;spacingRight=4;overflow=hidden;rotatable=0;points=[[0,0.5],[1,0.5]];portConstraint=eastwest;" vertex="1" parent="96hk8IAAOX7AO58MwP5Q-0">
          <mxGeometry y="26" width="160" height="26" as="geometry" />
        </mxCell>
        <mxCell id="96hk8IAAOX7AO58MwP5Q-6" value="" style="line;html=1;strokeWidth=1;align=left;verticalAlign=middle;spacingTop=-1;spacingLeft=3;spacingRight=3;rotatable=0;labelPosition=right;points=[];portConstraint=eastwest;" vertex="1" parent="96hk8IAAOX7AO58MwP5Q-0">
          <mxGeometry y="52" width="160" height="8" as="geometry" />
        </mxCell>
        <mxCell id="96hk8IAAOX7AO58MwP5Q-8" value="ff" style="text;align=left;verticalAlign=top;spacingLeft=4;spacingRight=4;overflow=hidden;rotatable=0;points=[[0,0.5],[1,0.5]];portConstraint=eastwest;" vertex="1" parent="96hk8IAAOX7AO58MwP5Q-0">
          <mxGeometry y="60" width="160" height="26" as="geometry" />
        </mxCell>
        <mxCell id="96hk8IAAOX7AO58MwP5Q-9" style="edgeStyle=orthogonalEdgeStyle;rounded=0;orthogonalLoop=1;jettySize=auto;html=1;entryX=1;entryY=0.5;entryDx=0;entryDy=0;fontFamily=Verdana;" edge="1" parent="WIyWlLk6GJQsqaUBKTNV-1" source="zkfFHV4jXpPFQw0GAbJ--1" target="96hk8IAAOX7AO58MwP5Q-0">
          <mxGeometry relative="1" as="geometry">
            <Array as="points">
              <mxPoint x="80" y="159" />
              <mxPoint x="80" y="53" />
            </Array>
          </mxGeometry>
        </mxCell>
        <mxCell id="96hk8IAAOX7AO58MwP5Q-10" value="OldOrganization" style="swimlane;fontStyle=0;align=center;verticalAlign=top;childLayout=stackLayout;horizontal=1;startSize=26;horizontalStack=0;resizeParent=1;resizeLast=0;collapsible=1;marginBottom=0;rounded=0;shadow=0;strokeWidth=1;fontFamily=Verdana;" vertex="1" collapsed="1" parent="WIyWlLk6GJQsqaUBKTNV-1">
          <mxGeometry x="-200" y="94" width="160" height="26" as="geometry">
            <mxRectangle x="-170" y="70" width="160" height="90" as="alternateBounds" />
          </mxGeometry>
        </mxCell>
        <mxCell id="96hk8IAAOX7AO58MwP5Q-11" value="Street" style="text;align=left;verticalAlign=top;spacingLeft=4;spacingRight=4;overflow=hidden;rotatable=0;points=[[0,0.5],[1,0.5]];portConstraint=eastwest;" vertex="1" parent="96hk8IAAOX7AO58MwP5Q-10">
          <mxGeometry y="26" width="160" height="26" as="geometry" />
        </mxCell>
        <mxCell id="96hk8IAAOX7AO58MwP5Q-12" value="" style="line;html=1;strokeWidth=1;align=left;verticalAlign=middle;spacingTop=-1;spacingLeft=3;spacingRight=3;rotatable=0;labelPosition=right;points=[];portConstraint=eastwest;" vertex="1" parent="96hk8IAAOX7AO58MwP5Q-10">
          <mxGeometry y="52" width="160" height="8" as="geometry" />
        </mxCell>
        <mxCell id="96hk8IAAOX7AO58MwP5Q-13" value="ff" style="text;align=left;verticalAlign=top;spacingLeft=4;spacingRight=4;overflow=hidden;rotatable=0;points=[[0,0.5],[1,0.5]];portConstraint=eastwest;" vertex="1" parent="96hk8IAAOX7AO58MwP5Q-10">
          <mxGeometry y="60" width="160" height="26" as="geometry" />
        </mxCell>
        <mxCell id="96hk8IAAOX7AO58MwP5Q-14" style="edgeStyle=orthogonalEdgeStyle;rounded=0;orthogonalLoop=1;jettySize=auto;html=1;entryX=1;entryY=0.5;entryDx=0;entryDy=0;fontFamily=Verdana;" edge="1" parent="WIyWlLk6GJQsqaUBKTNV-1" source="zkfFHV4jXpPFQw0GAbJ--2" target="96hk8IAAOX7AO58MwP5Q-10">
          <mxGeometry relative="1" as="geometry">
            <Array as="points">
              <mxPoint x="70" y="185" />
              <mxPoint x="70" y="107" />
            </Array>
          </mxGeometry>
        </mxCell>
        <mxCell id="96hk8IAAOX7AO58MwP5Q-15" value="ApplicantRequestType" style="swimlane;fontStyle=0;align=center;verticalAlign=top;childLayout=stackLayout;horizontal=1;startSize=26;horizontalStack=0;resizeParent=1;resizeLast=0;collapsible=1;marginBottom=0;rounded=0;shadow=0;strokeWidth=1;fillColor=#dae8fc;strokeColor=#6c8ebf;fontFamily=Verdana;" vertex="1" collapsed="1" parent="WIyWlLk6GJQsqaUBKTNV-1">
          <mxGeometry x="-200" y="140" width="160" height="26" as="geometry">
            <mxRectangle x="-170" y="70" width="160" height="90" as="alternateBounds" />
          </mxGeometry>
        </mxCell>
        <mxCell id="96hk8IAAOX7AO58MwP5Q-16" value="Street" style="text;align=left;verticalAlign=top;spacingLeft=4;spacingRight=4;overflow=hidden;rotatable=0;points=[[0,0.5],[1,0.5]];portConstraint=eastwest;" vertex="1" parent="96hk8IAAOX7AO58MwP5Q-15">
          <mxGeometry y="26" width="160" height="26" as="geometry" />
        </mxCell>
        <mxCell id="96hk8IAAOX7AO58MwP5Q-17" value="" style="line;html=1;strokeWidth=1;align=left;verticalAlign=middle;spacingTop=-1;spacingLeft=3;spacingRight=3;rotatable=0;labelPosition=right;points=[];portConstraint=eastwest;" vertex="1" parent="96hk8IAAOX7AO58MwP5Q-15">
          <mxGeometry y="52" width="160" height="8" as="geometry" />
        </mxCell>
        <mxCell id="96hk8IAAOX7AO58MwP5Q-18" value="ff" style="text;align=left;verticalAlign=top;spacingLeft=4;spacingRight=4;overflow=hidden;rotatable=0;points=[[0,0.5],[1,0.5]];portConstraint=eastwest;" vertex="1" parent="96hk8IAAOX7AO58MwP5Q-15">
          <mxGeometry y="60" width="160" height="26" as="geometry" />
        </mxCell>
        <mxCell id="96hk8IAAOX7AO58MwP5Q-21" style="edgeStyle=orthogonalEdgeStyle;rounded=0;orthogonalLoop=1;jettySize=auto;html=1;entryX=1;entryY=0.5;entryDx=0;entryDy=0;fontFamily=Verdana;" edge="1" parent="WIyWlLk6GJQsqaUBKTNV-1" source="96hk8IAAOX7AO58MwP5Q-20" target="96hk8IAAOX7AO58MwP5Q-15">
          <mxGeometry relative="1" as="geometry">
            <Array as="points">
              <mxPoint x="50" y="237" />
              <mxPoint x="50" y="153" />
            </Array>
          </mxGeometry>
        </mxCell>
        <mxCell id="96hk8IAAOX7AO58MwP5Q-22" value="State" style="swimlane;fontStyle=0;align=center;verticalAlign=top;childLayout=stackLayout;horizontal=1;startSize=26;horizontalStack=0;resizeParent=1;resizeLast=0;collapsible=1;marginBottom=0;rounded=0;shadow=0;strokeWidth=1;fontFamily=Verdana;" vertex="1" collapsed="1" parent="WIyWlLk6GJQsqaUBKTNV-1">
          <mxGeometry x="-200" y="190" width="160" height="26" as="geometry">
            <mxRectangle x="-170" y="70" width="160" height="90" as="alternateBounds" />
          </mxGeometry>
        </mxCell>
        <mxCell id="96hk8IAAOX7AO58MwP5Q-23" value="Street" style="text;align=left;verticalAlign=top;spacingLeft=4;spacingRight=4;overflow=hidden;rotatable=0;points=[[0,0.5],[1,0.5]];portConstraint=eastwest;" vertex="1" parent="96hk8IAAOX7AO58MwP5Q-22">
          <mxGeometry y="26" width="160" height="26" as="geometry" />
        </mxCell>
        <mxCell id="96hk8IAAOX7AO58MwP5Q-24" value="" style="line;html=1;strokeWidth=1;align=left;verticalAlign=middle;spacingTop=-1;spacingLeft=3;spacingRight=3;rotatable=0;labelPosition=right;points=[];portConstraint=eastwest;" vertex="1" parent="96hk8IAAOX7AO58MwP5Q-22">
          <mxGeometry y="52" width="160" height="8" as="geometry" />
        </mxCell>
        <mxCell id="96hk8IAAOX7AO58MwP5Q-25" value="ff" style="text;align=left;verticalAlign=top;spacingLeft=4;spacingRight=4;overflow=hidden;rotatable=0;points=[[0,0.5],[1,0.5]];portConstraint=eastwest;" vertex="1" parent="96hk8IAAOX7AO58MwP5Q-22">
          <mxGeometry y="60" width="160" height="26" as="geometry" />
        </mxCell>
        <mxCell id="96hk8IAAOX7AO58MwP5Q-26" style="edgeStyle=orthogonalEdgeStyle;rounded=0;orthogonalLoop=1;jettySize=auto;html=1;entryX=1;entryY=0.5;entryDx=0;entryDy=0;fontFamily=Verdana;" edge="1" parent="WIyWlLk6GJQsqaUBKTNV-1" source="96hk8IAAOX7AO58MwP5Q-19" target="96hk8IAAOX7AO58MwP5Q-22">
          <mxGeometry relative="1" as="geometry" />
        </mxCell>
        <mxCell id="96hk8IAAOX7AO58MwP5Q-30" value="OutgoingBase" style="swimlane;fontStyle=0;childLayout=stackLayout;horizontal=1;startSize=26;fillColor=none;horizontalStack=0;resizeParent=1;resizeParentMax=0;resizeLast=0;collapsible=1;marginBottom=0;fontFamily=Verdana;" vertex="1" collapsed="1" parent="WIyWlLk6GJQsqaUBKTNV-1">
          <mxGeometry x="10" y="-118" width="120" height="30" as="geometry">
            <mxRectangle x="10" y="-118" width="140" height="52" as="alternateBounds" />
          </mxGeometry>
        </mxCell>
        <mxCell id="96hk8IAAOX7AO58MwP5Q-31" value="OutgoingRequisites" style="text;strokeColor=none;fillColor=none;align=left;verticalAlign=top;spacingLeft=4;spacingRight=4;overflow=hidden;rotatable=0;points=[[0,0.5],[1,0.5]];portConstraint=eastwest;fontFamily=Verdana;" vertex="1" parent="96hk8IAAOX7AO58MwP5Q-30">
          <mxGeometry y="26" width="140" height="26" as="geometry" />
        </mxCell>
        <mxCell id="96hk8IAAOX7AO58MwP5Q-34" value="ICoreDocumentLink" style="swimlane;fontStyle=0;childLayout=stackLayout;horizontal=1;startSize=26;fillColor=none;horizontalStack=0;resizeParent=1;resizeParentMax=0;resizeLast=0;collapsible=1;marginBottom=0;fontFamily=Verdana;" vertex="1" parent="WIyWlLk6GJQsqaUBKTNV-1">
          <mxGeometry x="200" y="-304" width="160" height="52" as="geometry" />
        </mxCell>
        <mxCell id="96hk8IAAOX7AO58MwP5Q-35" value="+ DocumentId : long" style="text;strokeColor=none;fillColor=none;align=left;verticalAlign=top;spacingLeft=4;spacingRight=4;overflow=hidden;rotatable=0;points=[[0,0.5],[1,0.5]];portConstraint=eastwest;fontFamily=Verdana;" vertex="1" parent="96hk8IAAOX7AO58MwP5Q-34">
          <mxGeometry y="26" width="160" height="26" as="geometry" />
        </mxCell>
        <mxCell id="96hk8IAAOX7AO58MwP5Q-38" value="ILinked" style="swimlane;fontStyle=0;childLayout=stackLayout;horizontal=1;startSize=26;fillColor=none;horizontalStack=0;resizeParent=1;resizeParentMax=0;resizeLast=0;collapsible=1;marginBottom=0;fontFamily=Verdana;" vertex="1" parent="WIyWlLk6GJQsqaUBKTNV-1">
          <mxGeometry x="344" y="-170" width="140" height="104" as="geometry" />
        </mxCell>
        <mxCell id="96hk8IAAOX7AO58MwP5Q-39" value="+ field: type" style="text;strokeColor=none;fillColor=none;align=left;verticalAlign=top;spacingLeft=4;spacingRight=4;overflow=hidden;rotatable=0;points=[[0,0.5],[1,0.5]];portConstraint=eastwest;fontFamily=Verdana;" vertex="1" parent="96hk8IAAOX7AO58MwP5Q-38">
          <mxGeometry y="26" width="140" height="26" as="geometry" />
        </mxCell>
        <mxCell id="96hk8IAAOX7AO58MwP5Q-40" value="+ field: type" style="text;strokeColor=none;fillColor=none;align=left;verticalAlign=top;spacingLeft=4;spacingRight=4;overflow=hidden;rotatable=0;points=[[0,0.5],[1,0.5]];portConstraint=eastwest;fontFamily=Verdana;" vertex="1" parent="96hk8IAAOX7AO58MwP5Q-38">
          <mxGeometry y="52" width="140" height="26" as="geometry" />
        </mxCell>
        <mxCell id="96hk8IAAOX7AO58MwP5Q-41" value="+ field: type" style="text;strokeColor=none;fillColor=none;align=left;verticalAlign=top;spacingLeft=4;spacingRight=4;overflow=hidden;rotatable=0;points=[[0,0.5],[1,0.5]];portConstraint=eastwest;fontFamily=Verdana;" vertex="1" parent="96hk8IAAOX7AO58MwP5Q-38">
          <mxGeometry y="78" width="140" height="26" as="geometry" />
        </mxCell>
        <mxCell id="96hk8IAAOX7AO58MwP5Q-42" value="IInternalState" style="swimlane;fontStyle=0;childLayout=stackLayout;horizontal=1;startSize=26;fillColor=none;horizontalStack=0;resizeParent=1;resizeParentMax=0;resizeLast=0;collapsible=1;marginBottom=0;fontFamily=Verdana;" vertex="1" parent="WIyWlLk6GJQsqaUBKTNV-1">
          <mxGeometry x="494" y="-170" width="140" height="104" as="geometry" />
        </mxCell>
        <mxCell id="96hk8IAAOX7AO58MwP5Q-43" value="+ field: type" style="text;strokeColor=none;fillColor=none;align=left;verticalAlign=top;spacingLeft=4;spacingRight=4;overflow=hidden;rotatable=0;points=[[0,0.5],[1,0.5]];portConstraint=eastwest;fontFamily=Verdana;" vertex="1" parent="96hk8IAAOX7AO58MwP5Q-42">
          <mxGeometry y="26" width="140" height="26" as="geometry" />
        </mxCell>
        <mxCell id="96hk8IAAOX7AO58MwP5Q-44" value="+ field: type" style="text;strokeColor=none;fillColor=none;align=left;verticalAlign=top;spacingLeft=4;spacingRight=4;overflow=hidden;rotatable=0;points=[[0,0.5],[1,0.5]];portConstraint=eastwest;fontFamily=Verdana;" vertex="1" parent="96hk8IAAOX7AO58MwP5Q-42">
          <mxGeometry y="52" width="140" height="26" as="geometry" />
        </mxCell>
        <mxCell id="96hk8IAAOX7AO58MwP5Q-45" value="+ field: type" style="text;strokeColor=none;fillColor=none;align=left;verticalAlign=top;spacingLeft=4;spacingRight=4;overflow=hidden;rotatable=0;points=[[0,0.5],[1,0.5]];portConstraint=eastwest;fontFamily=Verdana;" vertex="1" parent="96hk8IAAOX7AO58MwP5Q-42">
          <mxGeometry y="78" width="140" height="26" as="geometry" />
        </mxCell>
        <mxCell id="96hk8IAAOX7AO58MwP5Q-46" value="DocumentBase" style="swimlane;fontStyle=0;childLayout=stackLayout;horizontal=1;startSize=26;fillColor=none;horizontalStack=0;resizeParent=1;resizeParentMax=0;resizeLast=0;collapsible=1;marginBottom=0;fontFamily=Verdana;" vertex="1" parent="WIyWlLk6GJQsqaUBKTNV-1">
          <mxGeometry x="10" y="-500" width="140" height="78" as="geometry" />
        </mxCell>
        <mxCell id="96hk8IAAOX7AO58MwP5Q-47" value="+ RoutingGuid : Guid" style="text;strokeColor=none;fillColor=none;align=left;verticalAlign=top;spacingLeft=4;spacingRight=4;overflow=hidden;rotatable=0;points=[[0,0.5],[1,0.5]];portConstraint=eastwest;fontFamily=Verdana;" vertex="1" parent="96hk8IAAOX7AO58MwP5Q-46">
          <mxGeometry y="26" width="140" height="26" as="geometry" />
        </mxCell>
        <mxCell id="96hk8IAAOX7AO58MwP5Q-48" value="+ IncomingPackage" style="text;strokeColor=none;fillColor=none;align=left;verticalAlign=top;spacingLeft=4;spacingRight=4;overflow=hidden;rotatable=0;points=[[0,0.5],[1,0.5]];portConstraint=eastwest;fontFamily=Verdana;" vertex="1" parent="96hk8IAAOX7AO58MwP5Q-46">
          <mxGeometry y="52" width="140" height="26" as="geometry" />
        </mxCell>
        <mxCell id="96hk8IAAOX7AO58MwP5Q-50" value="OutgoingRequisites" style="swimlane;fontStyle=0;childLayout=stackLayout;horizontal=1;startSize=26;fillColor=none;horizontalStack=0;resizeParent=1;resizeParentMax=0;resizeLast=0;collapsible=1;marginBottom=0;fontFamily=Verdana;" vertex="1" collapsed="1" parent="WIyWlLk6GJQsqaUBKTNV-1">
          <mxGeometry x="-210" y="-118" width="160" height="30" as="geometry">
            <mxRectangle x="-210" y="-118" width="170" height="78" as="alternateBounds" />
          </mxGeometry>
        </mxCell>
        <mxCell id="96hk8IAAOX7AO58MwP5Q-51" value="OutgoingNumber : string" style="text;strokeColor=none;fillColor=none;align=left;verticalAlign=top;spacingLeft=4;spacingRight=4;overflow=hidden;rotatable=0;points=[[0,0.5],[1,0.5]];portConstraint=eastwest;fontFamily=Verdana;" vertex="1" parent="96hk8IAAOX7AO58MwP5Q-50">
          <mxGeometry y="26" width="170" height="26" as="geometry" />
        </mxCell>
        <mxCell id="96hk8IAAOX7AO58MwP5Q-113" value="OutgoingDate : DateTime?" style="text;strokeColor=none;fillColor=none;align=left;verticalAlign=top;spacingLeft=4;spacingRight=4;overflow=hidden;rotatable=0;points=[[0,0.5],[1,0.5]];portConstraint=eastwest;fontFamily=Verdana;" vertex="1" parent="96hk8IAAOX7AO58MwP5Q-50">
          <mxGeometry y="52" width="170" height="26" as="geometry" />
        </mxCell>
        <mxCell id="96hk8IAAOX7AO58MwP5Q-52" style="edgeStyle=orthogonalEdgeStyle;rounded=0;orthogonalLoop=1;jettySize=auto;html=1;exitX=0;exitY=0.5;exitDx=0;exitDy=0;entryX=1;entryY=0.25;entryDx=0;entryDy=0;fontFamily=Verdana;" edge="1" parent="WIyWlLk6GJQsqaUBKTNV-1" source="96hk8IAAOX7AO58MwP5Q-31" target="96hk8IAAOX7AO58MwP5Q-50">
          <mxGeometry relative="1" as="geometry" />
        </mxCell>
        <mxCell id="96hk8IAAOX7AO58MwP5Q-53" value="IOutGoing" style="swimlane;fontStyle=0;childLayout=stackLayout;horizontal=1;startSize=26;fillColor=none;horizontalStack=0;resizeParent=1;resizeParentMax=0;resizeLast=0;collapsible=1;marginBottom=0;fontFamily=Verdana;" vertex="1" collapsed="1" parent="WIyWlLk6GJQsqaUBKTNV-1">
          <mxGeometry x="-210" y="-210" width="100" height="30" as="geometry">
            <mxRectangle x="-210" y="-210" width="170" height="52" as="alternateBounds" />
          </mxGeometry>
        </mxCell>
        <mxCell id="96hk8IAAOX7AO58MwP5Q-54" value="OutgoingRequisites" style="text;strokeColor=none;fillColor=none;align=left;verticalAlign=top;spacingLeft=4;spacingRight=4;overflow=hidden;rotatable=0;points=[[0,0.5],[1,0.5]];portConstraint=eastwest;fontFamily=Verdana;" vertex="1" parent="96hk8IAAOX7AO58MwP5Q-53">
          <mxGeometry y="26" width="170" height="26" as="geometry" />
        </mxCell>
        <mxCell id="96hk8IAAOX7AO58MwP5Q-57" value="Extends" style="endArrow=block;endSize=16;endFill=0;html=1;rounded=0;fontFamily=Verdana;exitX=0.25;exitY=0;exitDx=0;exitDy=0;edgeStyle=orthogonalEdgeStyle;" edge="1" parent="WIyWlLk6GJQsqaUBKTNV-1" source="zkfFHV4jXpPFQw0GAbJ--0" target="96hk8IAAOX7AO58MwP5Q-30">
          <mxGeometry x="-0.7041" width="160" relative="1" as="geometry">
            <mxPoint x="360" y="10" as="sourcePoint" />
            <mxPoint x="520" y="10" as="targetPoint" />
            <Array as="points">
              <mxPoint x="200" />
              <mxPoint x="70" />
            </Array>
            <mxPoint as="offset" />
          </mxGeometry>
        </mxCell>
        <mxCell id="96hk8IAAOX7AO58MwP5Q-58" value="" style="endArrow=block;dashed=1;endFill=0;endSize=12;html=1;rounded=0;fontFamily=Verdana;edgeStyle=orthogonalEdgeStyle;exitX=0.5;exitY=0;exitDx=0;exitDy=0;" edge="1" parent="WIyWlLk6GJQsqaUBKTNV-1" source="zkfFHV4jXpPFQw0GAbJ--0" target="96hk8IAAOX7AO58MwP5Q-34">
          <mxGeometry width="160" relative="1" as="geometry">
            <mxPoint x="340" y="52.5" as="sourcePoint" />
            <mxPoint x="500" y="52.5" as="targetPoint" />
          </mxGeometry>
        </mxCell>
        <mxCell id="96hk8IAAOX7AO58MwP5Q-59" value="Extends" style="endArrow=block;endSize=16;endFill=0;html=1;rounded=0;fontFamily=Verdana;exitX=0.5;exitY=0;exitDx=0;exitDy=0;edgeStyle=orthogonalEdgeStyle;" edge="1" parent="WIyWlLk6GJQsqaUBKTNV-1" source="96hk8IAAOX7AO58MwP5Q-30" target="96hk8IAAOX7AO58MwP5Q-46">
          <mxGeometry width="160" relative="1" as="geometry">
            <mxPoint x="210" y="130" as="sourcePoint" />
            <mxPoint x="90" y="-56" as="targetPoint" />
            <Array as="points">
              <mxPoint x="80" y="-260" />
              <mxPoint x="80" y="-260" />
            </Array>
          </mxGeometry>
        </mxCell>
        <mxCell id="96hk8IAAOX7AO58MwP5Q-60" value="" style="endArrow=block;dashed=1;endFill=0;endSize=12;html=1;rounded=0;fontFamily=Verdana;edgeStyle=orthogonalEdgeStyle;exitX=0.5;exitY=0;exitDx=0;exitDy=0;" edge="1" parent="WIyWlLk6GJQsqaUBKTNV-1" source="zkfFHV4jXpPFQw0GAbJ--0" target="96hk8IAAOX7AO58MwP5Q-38">
          <mxGeometry width="160" relative="1" as="geometry">
            <mxPoint x="350" y="62.5" as="sourcePoint" />
            <mxPoint x="510" y="62.5" as="targetPoint" />
            <Array as="points">
              <mxPoint x="280" y="-20" />
              <mxPoint x="414" y="-20" />
            </Array>
          </mxGeometry>
        </mxCell>
        <mxCell id="96hk8IAAOX7AO58MwP5Q-61" value="" style="endArrow=block;dashed=1;endFill=0;endSize=12;html=1;rounded=0;fontFamily=Verdana;edgeStyle=orthogonalEdgeStyle;exitX=0.5;exitY=0;exitDx=0;exitDy=0;" edge="1" parent="WIyWlLk6GJQsqaUBKTNV-1" source="zkfFHV4jXpPFQw0GAbJ--0" target="96hk8IAAOX7AO58MwP5Q-42">
          <mxGeometry width="160" relative="1" as="geometry">
            <mxPoint x="360" y="72.5" as="sourcePoint" />
            <mxPoint x="520" y="72.5" as="targetPoint" />
            <Array as="points">
              <mxPoint x="280" y="-20" />
              <mxPoint x="564" y="-20" />
            </Array>
          </mxGeometry>
        </mxCell>
        <mxCell id="96hk8IAAOX7AO58MwP5Q-62" value="" style="endArrow=block;dashed=1;endFill=0;endSize=12;html=1;rounded=0;fontFamily=Verdana;edgeStyle=orthogonalEdgeStyle;exitX=0.25;exitY=0;exitDx=0;exitDy=0;" edge="1" parent="WIyWlLk6GJQsqaUBKTNV-1" source="96hk8IAAOX7AO58MwP5Q-30" target="96hk8IAAOX7AO58MwP5Q-53">
          <mxGeometry width="160" relative="1" as="geometry">
            <mxPoint x="290" y="130" as="sourcePoint" />
            <mxPoint x="274" y="-56" as="targetPoint" />
            <Array as="points">
              <mxPoint x="45" y="-180" />
              <mxPoint x="-130" y="-180" />
            </Array>
          </mxGeometry>
        </mxCell>
        <mxCell id="96hk8IAAOX7AO58MwP5Q-63" value="IncomingPackageBase" style="swimlane;fontStyle=0;childLayout=stackLayout;horizontal=1;startSize=26;fillColor=#fff2cc;horizontalStack=0;resizeParent=1;resizeParentMax=0;resizeLast=0;collapsible=1;marginBottom=0;fontFamily=Verdana;strokeColor=#d6b656;" vertex="1" parent="WIyWlLk6GJQsqaUBKTNV-1">
          <mxGeometry x="-490" y="-322" width="240" height="520" as="geometry">
            <mxRectangle x="-210" y="-330" width="170" height="30" as="alternateBounds" />
          </mxGeometry>
        </mxCell>
        <mxCell id="96hk8IAAOX7AO58MwP5Q-64" value="+ RoutingGuid: Guid" style="text;strokeColor=none;fillColor=none;align=left;verticalAlign=top;spacingLeft=4;spacingRight=4;overflow=hidden;rotatable=0;points=[[0,0.5],[1,0.5]];portConstraint=eastwest;fontFamily=Verdana;" vertex="1" parent="96hk8IAAOX7AO58MwP5Q-63">
          <mxGeometry y="26" width="240" height="26" as="geometry" />
        </mxCell>
        <mxCell id="96hk8IAAOX7AO58MwP5Q-65" value="+ Number : int [inNumber]" style="text;strokeColor=none;fillColor=none;align=left;verticalAlign=top;spacingLeft=4;spacingRight=4;overflow=hidden;rotatable=0;points=[[0,0.5],[1,0.5]];portConstraint=eastwest;fontFamily=Verdana;" vertex="1" parent="96hk8IAAOX7AO58MwP5Q-63">
          <mxGeometry y="52" width="240" height="26" as="geometry" />
        </mxCell>
        <mxCell id="96hk8IAAOX7AO58MwP5Q-116" value="+ Created : DateTime [inDate]" style="text;strokeColor=none;fillColor=none;align=left;verticalAlign=top;spacingLeft=4;spacingRight=4;overflow=hidden;rotatable=0;points=[[0,0.5],[1,0.5]];portConstraint=eastwest;fontFamily=Verdana;" vertex="1" parent="96hk8IAAOX7AO58MwP5Q-63">
          <mxGeometry y="78" width="240" height="26" as="geometry" />
        </mxCell>
        <mxCell id="96hk8IAAOX7AO58MwP5Q-118" value="+ ChildNumber : int" style="text;strokeColor=none;fillColor=none;align=left;verticalAlign=top;spacingLeft=4;spacingRight=4;overflow=hidden;rotatable=0;points=[[0,0.5],[1,0.5]];portConstraint=eastwest;fontFamily=Verdana;" vertex="1" parent="96hk8IAAOX7AO58MwP5Q-63">
          <mxGeometry y="104" width="240" height="26" as="geometry" />
        </mxCell>
        <mxCell id="96hk8IAAOX7AO58MwP5Q-119" value="+ IsMainIncoming: bool" style="text;strokeColor=none;fillColor=none;align=left;verticalAlign=top;spacingLeft=4;spacingRight=4;overflow=hidden;rotatable=0;points=[[0,0.5],[1,0.5]];portConstraint=eastwest;fontFamily=Verdana;" vertex="1" parent="96hk8IAAOX7AO58MwP5Q-63">
          <mxGeometry y="130" width="240" height="26" as="geometry" />
        </mxCell>
        <mxCell id="96hk8IAAOX7AO58MwP5Q-121" value="+ Flow : DocumentFlow" style="text;strokeColor=none;fillColor=none;align=left;verticalAlign=top;spacingLeft=4;spacingRight=4;overflow=hidden;rotatable=0;points=[[0,0.5],[1,0.5]];portConstraint=eastwest;fontFamily=Verdana;" vertex="1" parent="96hk8IAAOX7AO58MwP5Q-63">
          <mxGeometry y="156" width="240" height="26" as="geometry" />
        </mxCell>
        <mxCell id="96hk8IAAOX7AO58MwP5Q-120" value="+ IsClosed : bool" style="text;strokeColor=none;fillColor=none;align=left;verticalAlign=top;spacingLeft=4;spacingRight=4;overflow=hidden;rotatable=0;points=[[0,0.5],[1,0.5]];portConstraint=eastwest;fontFamily=Verdana;" vertex="1" parent="96hk8IAAOX7AO58MwP5Q-63">
          <mxGeometry y="182" width="240" height="26" as="geometry" />
        </mxCell>
        <mxCell id="96hk8IAAOX7AO58MwP5Q-117" value="+ Expert : OldUser" style="text;strokeColor=none;fillColor=none;align=left;verticalAlign=top;spacingLeft=4;spacingRight=4;overflow=hidden;rotatable=0;points=[[0,0.5],[1,0.5]];portConstraint=eastwest;fontFamily=Verdana;" vertex="1" parent="96hk8IAAOX7AO58MwP5Q-63">
          <mxGeometry y="208" width="240" height="26" as="geometry" />
        </mxCell>
        <mxCell id="96hk8IAAOX7AO58MwP5Q-122" value="+ Document : StatementBase" style="text;strokeColor=none;fillColor=none;align=left;verticalAlign=top;spacingLeft=4;spacingRight=4;overflow=hidden;rotatable=0;points=[[0,0.5],[1,0.5]];portConstraint=eastwest;fontFamily=Verdana;" vertex="1" parent="96hk8IAAOX7AO58MwP5Q-63">
          <mxGeometry y="234" width="240" height="26" as="geometry" />
        </mxCell>
        <mxCell id="96hk8IAAOX7AO58MwP5Q-125" value="+ ParentDocument: StatementBase" style="text;strokeColor=none;fillColor=none;align=left;verticalAlign=top;spacingLeft=4;spacingRight=4;overflow=hidden;rotatable=0;points=[[0,0.5],[1,0.5]];portConstraint=eastwest;fontFamily=Verdana;" vertex="1" parent="96hk8IAAOX7AO58MwP5Q-63">
          <mxGeometry y="260" width="240" height="26" as="geometry" />
        </mxCell>
        <mxCell id="96hk8IAAOX7AO58MwP5Q-127" value="+ AlienNumber : string" style="text;strokeColor=none;fillColor=none;align=left;verticalAlign=top;spacingLeft=4;spacingRight=4;overflow=hidden;rotatable=0;points=[[0,0.5],[1,0.5]];portConstraint=eastwest;fontFamily=Verdana;" vertex="1" parent="96hk8IAAOX7AO58MwP5Q-63">
          <mxGeometry y="286" width="240" height="26" as="geometry" />
        </mxCell>
        <mxCell id="96hk8IAAOX7AO58MwP5Q-128" value="+ AlienIncomingTypeId" style="text;strokeColor=none;fillColor=none;align=left;verticalAlign=top;spacingLeft=4;spacingRight=4;overflow=hidden;rotatable=0;points=[[0,0.5],[1,0.5]];portConstraint=eastwest;fontFamily=Verdana;" vertex="1" parent="96hk8IAAOX7AO58MwP5Q-63">
          <mxGeometry y="312" width="240" height="26" as="geometry" />
        </mxCell>
        <mxCell id="96hk8IAAOX7AO58MwP5Q-126" value="+ DocumentId : int [idStatement]" style="text;strokeColor=#d6b656;fillColor=#fff2cc;align=left;verticalAlign=top;spacingLeft=4;spacingRight=4;overflow=hidden;rotatable=0;points=[[0,0.5],[1,0.5]];portConstraint=eastwest;fontFamily=Verdana;" vertex="1" parent="96hk8IAAOX7AO58MwP5Q-63">
          <mxGeometry y="338" width="240" height="26" as="geometry" />
        </mxCell>
        <mxCell id="96hk8IAAOX7AO58MwP5Q-124" value="+ OutgoingRequisites" style="text;strokeColor=none;fillColor=none;align=left;verticalAlign=top;spacingLeft=4;spacingRight=4;overflow=hidden;rotatable=0;points=[[0,0.5],[1,0.5]];portConstraint=eastwest;fontFamily=Verdana;" vertex="1" parent="96hk8IAAOX7AO58MwP5Q-63">
          <mxGeometry y="364" width="240" height="26" as="geometry" />
        </mxCell>
        <mxCell id="96hk8IAAOX7AO58MwP5Q-146" value="+ DisableReasonId : int" style="text;strokeColor=none;fillColor=none;align=left;verticalAlign=top;spacingLeft=4;spacingRight=4;overflow=hidden;rotatable=0;points=[[0,0.5],[1,0.5]];portConstraint=eastwest;fontFamily=Verdana;" vertex="1" parent="96hk8IAAOX7AO58MwP5Q-63">
          <mxGeometry y="390" width="240" height="26" as="geometry" />
        </mxCell>
        <mxCell id="96hk8IAAOX7AO58MwP5Q-123" value="+ DisableDate : DateTime?" style="text;strokeColor=none;fillColor=none;align=left;verticalAlign=top;spacingLeft=4;spacingRight=4;overflow=hidden;rotatable=0;points=[[0,0.5],[1,0.5]];portConstraint=eastwest;fontFamily=Verdana;" vertex="1" parent="96hk8IAAOX7AO58MwP5Q-63">
          <mxGeometry y="416" width="240" height="26" as="geometry" />
        </mxCell>
        <mxCell id="96hk8IAAOX7AO58MwP5Q-148" value="+ DisableLetter : string" style="text;strokeColor=none;fillColor=none;align=left;verticalAlign=top;spacingLeft=4;spacingRight=4;overflow=hidden;rotatable=0;points=[[0,0.5],[1,0.5]];portConstraint=eastwest;fontFamily=Verdana;" vertex="1" parent="96hk8IAAOX7AO58MwP5Q-63">
          <mxGeometry y="442" width="240" height="26" as="geometry" />
        </mxCell>
        <mxCell id="96hk8IAAOX7AO58MwP5Q-147" value="+ Comment : string" style="text;strokeColor=none;fillColor=none;align=left;verticalAlign=top;spacingLeft=4;spacingRight=4;overflow=hidden;rotatable=0;points=[[0,0.5],[1,0.5]];portConstraint=eastwest;fontFamily=Verdana;" vertex="1" parent="96hk8IAAOX7AO58MwP5Q-63">
          <mxGeometry y="468" width="240" height="26" as="geometry" />
        </mxCell>
        <mxCell id="96hk8IAAOX7AO58MwP5Q-149" value="+ Link : string" style="text;strokeColor=none;fillColor=none;align=left;verticalAlign=top;spacingLeft=4;spacingRight=4;overflow=hidden;rotatable=0;points=[[0,0.5],[1,0.5]];portConstraint=eastwest;fontFamily=Verdana;" vertex="1" parent="96hk8IAAOX7AO58MwP5Q-63">
          <mxGeometry y="494" width="240" height="26" as="geometry" />
        </mxCell>
        <mxCell id="96hk8IAAOX7AO58MwP5Q-66" value="ProducingEntityBase" style="swimlane;fontStyle=2;childLayout=stackLayout;horizontal=1;startSize=26;fillColor=none;horizontalStack=0;resizeParent=1;resizeParentMax=0;resizeLast=0;collapsible=1;marginBottom=0;fontFamily=Verdana;" vertex="1" parent="WIyWlLk6GJQsqaUBKTNV-1">
          <mxGeometry x="-20" y="-930" width="200" height="234" as="geometry" />
        </mxCell>
        <mxCell id="96hk8IAAOX7AO58MwP5Q-81" value="+ Modified : DateTime" style="text;strokeColor=none;fillColor=none;align=left;verticalAlign=top;spacingLeft=4;spacingRight=4;overflow=hidden;rotatable=0;points=[[0,0.5],[1,0.5]];portConstraint=eastwest;fontFamily=Verdana;" vertex="1" parent="96hk8IAAOX7AO58MwP5Q-66">
          <mxGeometry y="26" width="200" height="26" as="geometry" />
        </mxCell>
        <mxCell id="96hk8IAAOX7AO58MwP5Q-85" value="+ Deleted: DateTime" style="text;strokeColor=none;fillColor=none;align=left;verticalAlign=top;spacingLeft=4;spacingRight=4;overflow=hidden;rotatable=0;points=[[0,0.5],[1,0.5]];portConstraint=eastwest;fontFamily=Verdana;" vertex="1" parent="96hk8IAAOX7AO58MwP5Q-66">
          <mxGeometry y="52" width="200" height="26" as="geometry" />
        </mxCell>
        <mxCell id="96hk8IAAOX7AO58MwP5Q-67" value="+ CreatedById: int" style="text;strokeColor=none;fillColor=none;align=left;verticalAlign=top;spacingLeft=4;spacingRight=4;overflow=hidden;rotatable=0;points=[[0,0.5],[1,0.5]];portConstraint=eastwest;fontFamily=Verdana;" vertex="1" parent="96hk8IAAOX7AO58MwP5Q-66">
          <mxGeometry y="78" width="200" height="26" as="geometry" />
        </mxCell>
        <mxCell id="96hk8IAAOX7AO58MwP5Q-83" value="+ ModifiedById : int" style="text;strokeColor=none;fillColor=none;align=left;verticalAlign=top;spacingLeft=4;spacingRight=4;overflow=hidden;rotatable=0;points=[[0,0.5],[1,0.5]];portConstraint=eastwest;fontFamily=Verdana;" vertex="1" parent="96hk8IAAOX7AO58MwP5Q-66">
          <mxGeometry y="104" width="200" height="26" as="geometry" />
        </mxCell>
        <mxCell id="96hk8IAAOX7AO58MwP5Q-86" value="+ DeletedById : int" style="text;strokeColor=none;fillColor=none;align=left;verticalAlign=top;spacingLeft=4;spacingRight=4;overflow=hidden;rotatable=0;points=[[0,0.5],[1,0.5]];portConstraint=eastwest;fontFamily=Verdana;" vertex="1" parent="96hk8IAAOX7AO58MwP5Q-66">
          <mxGeometry y="130" width="200" height="26" as="geometry" />
        </mxCell>
        <mxCell id="96hk8IAAOX7AO58MwP5Q-68" value="+ CreatedBy : OldUser" style="text;strokeColor=none;fillColor=none;align=left;verticalAlign=top;spacingLeft=4;spacingRight=4;overflow=hidden;rotatable=0;points=[[0,0.5],[1,0.5]];portConstraint=eastwest;fontFamily=Verdana;" vertex="1" parent="96hk8IAAOX7AO58MwP5Q-66">
          <mxGeometry y="156" width="200" height="26" as="geometry" />
        </mxCell>
        <mxCell id="96hk8IAAOX7AO58MwP5Q-80" value="+ ModifiedBy : OldUser" style="text;strokeColor=none;fillColor=none;align=left;verticalAlign=top;spacingLeft=4;spacingRight=4;overflow=hidden;rotatable=0;points=[[0,0.5],[1,0.5]];portConstraint=eastwest;fontFamily=Verdana;" vertex="1" parent="96hk8IAAOX7AO58MwP5Q-66">
          <mxGeometry y="182" width="200" height="26" as="geometry" />
        </mxCell>
        <mxCell id="96hk8IAAOX7AO58MwP5Q-84" value="+ DeletedBy : OldUser" style="text;strokeColor=none;fillColor=none;align=left;verticalAlign=top;spacingLeft=4;spacingRight=4;overflow=hidden;rotatable=0;points=[[0,0.5],[1,0.5]];portConstraint=eastwest;fontFamily=Verdana;" vertex="1" parent="96hk8IAAOX7AO58MwP5Q-66">
          <mxGeometry y="208" width="200" height="26" as="geometry" />
        </mxCell>
        <mxCell id="96hk8IAAOX7AO58MwP5Q-69" value="&lt;&lt;interface&gt;&gt;&#xa;IRoutable" style="swimlane;fontStyle=0;childLayout=stackLayout;horizontal=1;startSize=40;fillColor=none;horizontalStack=0;resizeParent=1;resizeParentMax=0;resizeLast=0;collapsible=1;marginBottom=0;fontFamily=Verdana;" vertex="1" parent="WIyWlLk6GJQsqaUBKTNV-1">
          <mxGeometry x="120" y="-640" width="140" height="66" as="geometry" />
        </mxCell>
        <mxCell id="96hk8IAAOX7AO58MwP5Q-70" value="+ RoutingGuid: Guid" style="text;strokeColor=none;fillColor=none;align=left;verticalAlign=top;spacingLeft=4;spacingRight=4;overflow=hidden;rotatable=0;points=[[0,0.5],[1,0.5]];portConstraint=eastwest;fontFamily=Verdana;" vertex="1" parent="96hk8IAAOX7AO58MwP5Q-69">
          <mxGeometry y="40" width="140" height="26" as="geometry" />
        </mxCell>
        <mxCell id="96hk8IAAOX7AO58MwP5Q-72" value="&lt;&lt;interface&gt;&gt;&#xa;IIncomingBase" style="swimlane;fontStyle=0;childLayout=stackLayout;horizontal=1;startSize=40;fillColor=none;horizontalStack=0;resizeParent=1;resizeParentMax=0;resizeLast=0;collapsible=1;marginBottom=0;fontFamily=Verdana;" vertex="1" parent="WIyWlLk6GJQsqaUBKTNV-1">
          <mxGeometry x="274" y="-640" width="140" height="66" as="geometry" />
        </mxCell>
        <mxCell id="96hk8IAAOX7AO58MwP5Q-73" value="..." style="text;strokeColor=none;fillColor=none;align=left;verticalAlign=top;spacingLeft=4;spacingRight=4;overflow=hidden;rotatable=0;points=[[0,0.5],[1,0.5]];portConstraint=eastwest;fontFamily=Verdana;" vertex="1" parent="96hk8IAAOX7AO58MwP5Q-72">
          <mxGeometry y="40" width="140" height="26" as="geometry" />
        </mxCell>
        <mxCell id="96hk8IAAOX7AO58MwP5Q-75" value="Extends" style="endArrow=block;endSize=16;endFill=0;html=1;rounded=0;fontFamily=Verdana;exitX=0.5;exitY=0;exitDx=0;exitDy=0;edgeStyle=orthogonalEdgeStyle;" edge="1" parent="WIyWlLk6GJQsqaUBKTNV-1" source="96hk8IAAOX7AO58MwP5Q-46" target="96hk8IAAOX7AO58MwP5Q-66">
          <mxGeometry width="160" relative="1" as="geometry">
            <mxPoint x="90" y="-108" as="sourcePoint" />
            <mxPoint y="-272" as="targetPoint" />
            <Array as="points">
              <mxPoint x="80" y="-620" />
              <mxPoint x="80" y="-620" />
            </Array>
          </mxGeometry>
        </mxCell>
        <mxCell id="96hk8IAAOX7AO58MwP5Q-76" style="edgeStyle=orthogonalEdgeStyle;rounded=0;orthogonalLoop=1;jettySize=auto;html=1;exitX=0;exitY=0.5;exitDx=0;exitDy=0;fontFamily=Verdana;" edge="1" parent="WIyWlLk6GJQsqaUBKTNV-1" source="96hk8IAAOX7AO58MwP5Q-48" target="96hk8IAAOX7AO58MwP5Q-63">
          <mxGeometry relative="1" as="geometry">
            <Array as="points">
              <mxPoint x="-10" y="-435" />
              <mxPoint x="-10" y="-370" />
              <mxPoint x="-270" y="-370" />
            </Array>
          </mxGeometry>
        </mxCell>
        <mxCell id="96hk8IAAOX7AO58MwP5Q-77" value="" style="endArrow=block;dashed=1;endFill=0;endSize=12;html=1;rounded=0;fontFamily=Verdana;edgeStyle=orthogonalEdgeStyle;exitX=0.75;exitY=0;exitDx=0;exitDy=0;" edge="1" parent="WIyWlLk6GJQsqaUBKTNV-1" source="96hk8IAAOX7AO58MwP5Q-46" target="96hk8IAAOX7AO58MwP5Q-69">
          <mxGeometry width="160" relative="1" as="geometry">
            <mxPoint x="125" y="-108" as="sourcePoint" />
            <mxPoint x="190" y="-246" as="targetPoint" />
            <Array as="points">
              <mxPoint x="115" y="-520" />
              <mxPoint x="190" y="-520" />
            </Array>
          </mxGeometry>
        </mxCell>
        <mxCell id="96hk8IAAOX7AO58MwP5Q-78" value="" style="endArrow=block;dashed=1;endFill=0;endSize=12;html=1;rounded=0;fontFamily=Verdana;edgeStyle=orthogonalEdgeStyle;exitX=0.75;exitY=0;exitDx=0;exitDy=0;" edge="1" parent="WIyWlLk6GJQsqaUBKTNV-1" source="96hk8IAAOX7AO58MwP5Q-46" target="96hk8IAAOX7AO58MwP5Q-72">
          <mxGeometry width="160" relative="1" as="geometry">
            <mxPoint x="35" y="-350" as="sourcePoint" />
            <mxPoint x="120" y="-484" as="targetPoint" />
            <Array as="points">
              <mxPoint x="115" y="-520" />
              <mxPoint x="344" y="-520" />
            </Array>
          </mxGeometry>
        </mxCell>
        <mxCell id="96hk8IAAOX7AO58MwP5Q-79" value="" style="endArrow=block;dashed=1;endFill=0;endSize=12;html=1;rounded=0;fontFamily=Verdana;edgeStyle=orthogonalEdgeStyle;exitX=0.75;exitY=0;exitDx=0;exitDy=0;" edge="1" parent="WIyWlLk6GJQsqaUBKTNV-1" source="96hk8IAAOX7AO58MwP5Q-63" target="96hk8IAAOX7AO58MwP5Q-69">
          <mxGeometry width="160" relative="1" as="geometry">
            <mxPoint x="35" y="-350" as="sourcePoint" />
            <mxPoint x="120" y="-644.0000000000002" as="targetPoint" />
            <Array as="points">
              <mxPoint x="-310" y="-540" />
              <mxPoint x="160" y="-540" />
            </Array>
          </mxGeometry>
        </mxCell>
        <mxCell id="96hk8IAAOX7AO58MwP5Q-88" value="StateBase" style="swimlane;fontStyle=2;childLayout=stackLayout;horizontal=1;startSize=26;fillColor=none;horizontalStack=0;resizeParent=1;resizeParentMax=0;resizeLast=0;collapsible=1;marginBottom=0;fontFamily=Verdana;" vertex="1" parent="WIyWlLk6GJQsqaUBKTNV-1">
          <mxGeometry x="-35" y="-1120" width="230" height="104" as="geometry" />
        </mxCell>
        <mxCell id="96hk8IAAOX7AO58MwP5Q-89" value="+ State: State" style="text;strokeColor=none;fillColor=none;align=left;verticalAlign=top;spacingLeft=4;spacingRight=4;overflow=hidden;rotatable=0;points=[[0,0.5],[1,0.5]];portConstraint=eastwest;fontFamily=Verdana;" vertex="1" parent="96hk8IAAOX7AO58MwP5Q-88">
          <mxGeometry y="26" width="230" height="26" as="geometry" />
        </mxCell>
        <mxCell id="96hk8IAAOX7AO58MwP5Q-90" value="+ StateLastChanged : DateTime" style="text;strokeColor=none;fillColor=none;align=left;verticalAlign=top;spacingLeft=4;spacingRight=4;overflow=hidden;rotatable=0;points=[[0,0.5],[1,0.5]];portConstraint=eastwest;fontFamily=Verdana;" vertex="1" parent="96hk8IAAOX7AO58MwP5Q-88">
          <mxGeometry y="52" width="230" height="26" as="geometry" />
        </mxCell>
        <mxCell id="96hk8IAAOX7AO58MwP5Q-91" value="+ DocumentType : DocumentType" style="text;strokeColor=none;fillColor=none;align=left;verticalAlign=top;spacingLeft=4;spacingRight=4;overflow=hidden;rotatable=0;points=[[0,0.5],[1,0.5]];portConstraint=eastwest;fontFamily=Verdana;" vertex="1" parent="96hk8IAAOX7AO58MwP5Q-88">
          <mxGeometry y="78" width="230" height="26" as="geometry" />
        </mxCell>
        <mxCell id="96hk8IAAOX7AO58MwP5Q-97" value="Extends" style="endArrow=block;endSize=16;endFill=0;html=1;rounded=0;fontFamily=Verdana;exitX=0.5;exitY=0;exitDx=0;exitDy=0;edgeStyle=orthogonalEdgeStyle;" edge="1" parent="WIyWlLk6GJQsqaUBKTNV-1" source="96hk8IAAOX7AO58MwP5Q-66" target="96hk8IAAOX7AO58MwP5Q-88">
          <mxGeometry width="160" relative="1" as="geometry">
            <mxPoint x="-10" y="-976" as="sourcePoint" />
            <mxPoint x="-100" y="-1140" as="targetPoint" />
            <Array as="points">
              <mxPoint x="80" y="-1000" />
              <mxPoint x="80" y="-1000" />
            </Array>
          </mxGeometry>
        </mxCell>
        <mxCell id="96hk8IAAOX7AO58MwP5Q-98" value="EntityBase" style="swimlane;fontStyle=2;childLayout=stackLayout;horizontal=1;startSize=26;fillColor=none;horizontalStack=0;resizeParent=1;resizeParentMax=0;resizeLast=0;collapsible=1;marginBottom=0;fontFamily=Verdana;" vertex="1" parent="WIyWlLk6GJQsqaUBKTNV-1">
          <mxGeometry x="-35" y="-1310" width="230" height="104" as="geometry" />
        </mxCell>
        <mxCell id="96hk8IAAOX7AO58MwP5Q-99" value="+ Id : int" style="text;strokeColor=none;fillColor=none;align=left;verticalAlign=top;spacingLeft=4;spacingRight=4;overflow=hidden;rotatable=0;points=[[0,0.5],[1,0.5]];portConstraint=eastwest;fontFamily=Verdana;" vertex="1" parent="96hk8IAAOX7AO58MwP5Q-98">
          <mxGeometry y="26" width="230" height="26" as="geometry" />
        </mxCell>
        <mxCell id="96hk8IAAOX7AO58MwP5Q-100" value="+ Created : DateTime" style="text;strokeColor=none;fillColor=none;align=left;verticalAlign=top;spacingLeft=4;spacingRight=4;overflow=hidden;rotatable=0;points=[[0,0.5],[1,0.5]];portConstraint=eastwest;fontFamily=Verdana;" vertex="1" parent="96hk8IAAOX7AO58MwP5Q-98">
          <mxGeometry y="52" width="230" height="26" as="geometry" />
        </mxCell>
        <mxCell id="96hk8IAAOX7AO58MwP5Q-101" value="+ ForcedLoad : bool" style="text;strokeColor=none;fillColor=none;align=left;verticalAlign=top;spacingLeft=4;spacingRight=4;overflow=hidden;rotatable=0;points=[[0,0.5],[1,0.5]];portConstraint=eastwest;fontFamily=Verdana;" vertex="1" parent="96hk8IAAOX7AO58MwP5Q-98">
          <mxGeometry y="78" width="230" height="26" as="geometry" />
        </mxCell>
        <mxCell id="96hk8IAAOX7AO58MwP5Q-102" value="Extends" style="endArrow=block;endSize=16;endFill=0;html=1;rounded=0;fontFamily=Verdana;exitX=0.5;exitY=0;exitDx=0;exitDy=0;edgeStyle=orthogonalEdgeStyle;" edge="1" parent="WIyWlLk6GJQsqaUBKTNV-1" source="96hk8IAAOX7AO58MwP5Q-88" target="96hk8IAAOX7AO58MwP5Q-98">
          <mxGeometry width="160" relative="1" as="geometry">
            <mxPoint x="210" y="-888" as="sourcePoint" />
            <mxPoint x="110" y="-1046" as="targetPoint" />
            <Array as="points">
              <mxPoint x="80" y="-1190" />
              <mxPoint x="80" y="-1190" />
            </Array>
          </mxGeometry>
        </mxCell>
        <mxCell id="96hk8IAAOX7AO58MwP5Q-103" value="&lt;&lt;interface&gt;&gt;&#xa;IIdentifieldBase" style="swimlane;fontStyle=0;childLayout=stackLayout;horizontal=1;startSize=40;fillColor=none;horizontalStack=0;resizeParent=1;resizeParentMax=0;resizeLast=0;collapsible=1;marginBottom=0;fontFamily=Verdana;" vertex="1" parent="WIyWlLk6GJQsqaUBKTNV-1">
          <mxGeometry x="75" y="-1480" width="140" height="66" as="geometry" />
        </mxCell>
        <mxCell id="96hk8IAAOX7AO58MwP5Q-104" value="Id : int" style="text;strokeColor=none;fillColor=none;align=left;verticalAlign=top;spacingLeft=4;spacingRight=4;overflow=hidden;rotatable=0;points=[[0,0.5],[1,0.5]];portConstraint=eastwest;fontFamily=Verdana;" vertex="1" parent="96hk8IAAOX7AO58MwP5Q-103">
          <mxGeometry y="40" width="140" height="26" as="geometry" />
        </mxCell>
        <mxCell id="96hk8IAAOX7AO58MwP5Q-105" value="&lt;&lt;interface&gt;&gt;&#xa;ICreatedBase" style="swimlane;fontStyle=0;childLayout=stackLayout;horizontal=1;startSize=40;fillColor=none;horizontalStack=0;resizeParent=1;resizeParentMax=0;resizeLast=0;collapsible=1;marginBottom=0;fontFamily=Verdana;" vertex="1" parent="WIyWlLk6GJQsqaUBKTNV-1">
          <mxGeometry x="235" y="-1480" width="140" height="66" as="geometry" />
        </mxCell>
        <mxCell id="96hk8IAAOX7AO58MwP5Q-106" value="..." style="text;strokeColor=none;fillColor=none;align=left;verticalAlign=top;spacingLeft=4;spacingRight=4;overflow=hidden;rotatable=0;points=[[0,0.5],[1,0.5]];portConstraint=eastwest;fontFamily=Verdana;" vertex="1" parent="96hk8IAAOX7AO58MwP5Q-105">
          <mxGeometry y="40" width="140" height="26" as="geometry" />
        </mxCell>
        <mxCell id="96hk8IAAOX7AO58MwP5Q-107" value="" style="endArrow=block;dashed=1;endFill=0;endSize=12;html=1;rounded=0;fontFamily=Verdana;edgeStyle=orthogonalEdgeStyle;exitX=0.5;exitY=0;exitDx=0;exitDy=0;" edge="1" parent="WIyWlLk6GJQsqaUBKTNV-1" source="96hk8IAAOX7AO58MwP5Q-98" target="96hk8IAAOX7AO58MwP5Q-103">
          <mxGeometry width="160" relative="1" as="geometry">
            <mxPoint x="235" y="-1016" as="sourcePoint" />
            <mxPoint x="537.5" y="-1340.0000000000005" as="targetPoint" />
            <Array as="points">
              <mxPoint x="95" y="-1380" />
              <mxPoint x="155" y="-1380" />
            </Array>
          </mxGeometry>
        </mxCell>
        <mxCell id="96hk8IAAOX7AO58MwP5Q-108" value="" style="endArrow=block;dashed=1;endFill=0;endSize=12;html=1;rounded=0;fontFamily=Verdana;edgeStyle=orthogonalEdgeStyle;exitX=0.5;exitY=0;exitDx=0;exitDy=0;" edge="1" parent="WIyWlLk6GJQsqaUBKTNV-1" source="96hk8IAAOX7AO58MwP5Q-98" target="96hk8IAAOX7AO58MwP5Q-105">
          <mxGeometry width="160" relative="1" as="geometry">
            <mxPoint x="105" y="-1340.0000000000002" as="sourcePoint" />
            <mxPoint x="165" y="-1404.0000000000002" as="targetPoint" />
            <Array as="points">
              <mxPoint x="95" y="-1380" />
              <mxPoint x="305" y="-1380" />
            </Array>
          </mxGeometry>
        </mxCell>
        <mxCell id="96hk8IAAOX7AO58MwP5Q-109" value="&lt;&lt;interface&gt;&gt;&#xa;IEntity" style="swimlane;fontStyle=0;childLayout=stackLayout;horizontal=1;startSize=40;fillColor=none;horizontalStack=0;resizeParent=1;resizeParentMax=0;resizeLast=0;collapsible=1;marginBottom=0;fontFamily=Verdana;" vertex="1" parent="WIyWlLk6GJQsqaUBKTNV-1">
          <mxGeometry x="75" y="-1580" width="140" height="66" as="geometry" />
        </mxCell>
        <mxCell id="96hk8IAAOX7AO58MwP5Q-111" value="" style="endArrow=block;dashed=1;endFill=0;endSize=12;html=1;rounded=0;fontFamily=Verdana;edgeStyle=orthogonalEdgeStyle;exitX=0.5;exitY=0;exitDx=0;exitDy=0;" edge="1" parent="WIyWlLk6GJQsqaUBKTNV-1" source="96hk8IAAOX7AO58MwP5Q-103" target="96hk8IAAOX7AO58MwP5Q-109">
          <mxGeometry width="160" relative="1" as="geometry">
            <mxPoint x="-65" y="-1482" as="sourcePoint" />
            <mxPoint x="315" y="-1404" as="targetPoint" />
            <Array as="points">
              <mxPoint x="145" y="-1490" />
              <mxPoint x="145" y="-1490" />
            </Array>
          </mxGeometry>
        </mxCell>
        <mxCell id="96hk8IAAOX7AO58MwP5Q-112" style="edgeStyle=orthogonalEdgeStyle;rounded=0;orthogonalLoop=1;jettySize=auto;html=1;exitX=0;exitY=0.5;exitDx=0;exitDy=0;fontFamily=Verdana;" edge="1" parent="WIyWlLk6GJQsqaUBKTNV-1" source="96hk8IAAOX7AO58MwP5Q-54" target="96hk8IAAOX7AO58MwP5Q-50">
          <mxGeometry relative="1" as="geometry">
            <mxPoint x="20" y="-69" as="sourcePoint" />
            <mxPoint x="-40" y="-147" as="targetPoint" />
            <Array as="points">
              <mxPoint x="-210" y="-171" />
              <mxPoint x="-230" y="-171" />
              <mxPoint x="-230" y="-100" />
            </Array>
          </mxGeometry>
        </mxCell>
        <mxCell id="96hk8IAAOX7AO58MwP5Q-114" value="Core.Document" style="text;html=1;align=center;verticalAlign=middle;resizable=0;points=[];autosize=1;strokeColor=none;fillColor=none;fontFamily=Verdana;" vertex="1" parent="WIyWlLk6GJQsqaUBKTNV-1">
          <mxGeometry x="216" y="-334" width="120" height="30" as="geometry" />
        </mxCell>
        <mxCell id="96hk8IAAOX7AO58MwP5Q-115" value="Входящий пакет документов" style="text;html=1;align=center;verticalAlign=middle;resizable=0;points=[];autosize=1;strokeColor=none;fillColor=none;fontFamily=Verdana;" vertex="1" parent="WIyWlLk6GJQsqaUBKTNV-1">
          <mxGeometry x="-530" y="-370" width="200" height="30" as="geometry" />
        </mxCell>
        <mxCell id="96hk8IAAOX7AO58MwP5Q-129" value="StatementBase" style="swimlane;fontStyle=0;childLayout=stackLayout;horizontal=1;startSize=26;fillColor=#fff2cc;horizontalStack=0;resizeParent=1;resizeParentMax=0;resizeLast=0;collapsible=1;marginBottom=0;fontFamily=Verdana;strokeColor=#d6b656;" vertex="1" parent="WIyWlLk6GJQsqaUBKTNV-1">
          <mxGeometry x="-730" y="-322" width="210" height="104" as="geometry">
            <mxRectangle x="-210" y="-330" width="170" height="30" as="alternateBounds" />
          </mxGeometry>
        </mxCell>
        <mxCell id="96hk8IAAOX7AO58MwP5Q-130" value="+ Medicament : Medicament" style="text;strokeColor=none;fillColor=none;align=left;verticalAlign=top;spacingLeft=4;spacingRight=4;overflow=hidden;rotatable=0;points=[[0,0.5],[1,0.5]];portConstraint=eastwest;fontFamily=Verdana;" vertex="1" parent="96hk8IAAOX7AO58MwP5Q-129">
          <mxGeometry y="26" width="210" height="26" as="geometry" />
        </mxCell>
        <mxCell id="96hk8IAAOX7AO58MwP5Q-131" value="+ MedicamentID : int" style="text;strokeColor=none;fillColor=none;align=left;verticalAlign=top;spacingLeft=4;spacingRight=4;overflow=hidden;rotatable=0;points=[[0,0.5],[1,0.5]];portConstraint=eastwest;fontFamily=Verdana;" vertex="1" parent="96hk8IAAOX7AO58MwP5Q-129">
          <mxGeometry y="52" width="210" height="26" as="geometry" />
        </mxCell>
        <mxCell id="96hk8IAAOX7AO58MwP5Q-132" value="+ Organization : OrganizationOld" style="text;strokeColor=none;fillColor=none;align=left;verticalAlign=top;spacingLeft=4;spacingRight=4;overflow=hidden;rotatable=0;points=[[0,0.5],[1,0.5]];portConstraint=eastwest;fontFamily=Verdana;" vertex="1" parent="96hk8IAAOX7AO58MwP5Q-129">
          <mxGeometry y="78" width="210" height="26" as="geometry" />
        </mxCell>
        <mxCell id="96hk8IAAOX7AO58MwP5Q-145" style="edgeStyle=orthogonalEdgeStyle;rounded=0;orthogonalLoop=1;jettySize=auto;html=1;fontFamily=Verdana;" edge="1" parent="WIyWlLk6GJQsqaUBKTNV-1" source="96hk8IAAOX7AO58MwP5Q-122" target="96hk8IAAOX7AO58MwP5Q-129">
          <mxGeometry relative="1" as="geometry">
            <Array as="points">
              <mxPoint x="-500" y="-75" />
              <mxPoint x="-500" y="-312" />
            </Array>
          </mxGeometry>
        </mxCell>
        <mxCell id="96hk8IAAOX7AO58MwP5Q-150" style="edgeStyle=orthogonalEdgeStyle;rounded=0;orthogonalLoop=1;jettySize=auto;html=1;fontFamily=Verdana;" edge="1" parent="WIyWlLk6GJQsqaUBKTNV-1" source="96hk8IAAOX7AO58MwP5Q-125" target="96hk8IAAOX7AO58MwP5Q-129">
          <mxGeometry relative="1" as="geometry">
            <mxPoint x="-519" y="-313" as="targetPoint" />
            <Array as="points">
              <mxPoint x="-500" y="-49" />
              <mxPoint x="-500" y="-312" />
            </Array>
          </mxGeometry>
        </mxCell>
        <mxCell id="96hk8IAAOX7AO58MwP5Q-151" value="Extends" style="endArrow=block;endSize=16;endFill=0;html=1;rounded=0;fontFamily=Verdana;exitX=0.5;exitY=0;exitDx=0;exitDy=0;edgeStyle=orthogonalEdgeStyle;" edge="1" parent="WIyWlLk6GJQsqaUBKTNV-1" source="96hk8IAAOX7AO58MwP5Q-129" target="96hk8IAAOX7AO58MwP5Q-46">
          <mxGeometry width="160" relative="1" as="geometry">
            <mxPoint x="40" y="-170" as="sourcePoint" />
            <mxPoint x="50" y="-334" as="targetPoint" />
            <Array as="points">
              <mxPoint x="-625" y="-340" />
              <mxPoint x="80" y="-340" />
            </Array>
          </mxGeometry>
        </mxCell>
        <mxCell id="96hk8IAAOX7AO58MwP5Q-153" value="MedicamentRegistrationApplicantRequest" style="swimlane;fontStyle=0;align=center;verticalAlign=top;childLayout=stackLayout;horizontal=1;startSize=26;horizontalStack=0;resizeParent=1;resizeLast=0;collapsible=1;marginBottom=0;rounded=0;shadow=0;strokeWidth=1;fontFamily=Verdana;fillColor=#dae8fc;strokeColor=#6c8ebf;" vertex="1" parent="WIyWlLk6GJQsqaUBKTNV-1">
          <mxGeometry x="120" y="400" width="320" height="460" as="geometry">
            <mxRectangle x="230" y="140" width="160" height="26" as="alternateBounds" />
          </mxGeometry>
        </mxCell>
        <mxCell id="96hk8IAAOX7AO58MwP5Q-154" value="Ean : string" style="text;align=left;verticalAlign=top;spacingLeft=4;spacingRight=4;overflow=hidden;rotatable=0;points=[[0,0.5],[1,0.5]];portConstraint=eastwest;fontFamily=Verdana;" vertex="1" parent="96hk8IAAOX7AO58MwP5Q-153">
          <mxGeometry y="26" width="320" height="26" as="geometry" />
        </mxCell>
        <mxCell id="96hk8IAAOX7AO58MwP5Q-155" value="RequestFileMz : string" style="text;align=left;verticalAlign=top;spacingLeft=4;spacingRight=4;overflow=hidden;rotatable=0;points=[[0,0.5],[1,0.5]];portConstraint=eastwest;rounded=0;shadow=0;html=0;fontFamily=Verdana;" vertex="1" parent="96hk8IAAOX7AO58MwP5Q-153">
          <mxGeometry y="52" width="320" height="26" as="geometry" />
        </mxCell>
        <mxCell id="96hk8IAAOX7AO58MwP5Q-156" value="RequestDescription : string" style="text;align=left;verticalAlign=top;spacingLeft=4;spacingRight=4;overflow=hidden;rotatable=0;points=[[0,0.5],[1,0.5]];portConstraint=eastwest;rounded=0;shadow=0;html=0;fontFamily=Verdana;" vertex="1" parent="96hk8IAAOX7AO58MwP5Q-153">
          <mxGeometry y="78" width="320" height="26" as="geometry" />
        </mxCell>
        <mxCell id="96hk8IAAOX7AO58MwP5Q-157" value="RequestEnclosures : string" style="text;strokeColor=none;fillColor=none;align=left;verticalAlign=top;spacingLeft=4;spacingRight=4;overflow=hidden;rotatable=0;points=[[0,0.5],[1,0.5]];portConstraint=eastwest;fontFamily=Verdana;" vertex="1" parent="96hk8IAAOX7AO58MwP5Q-153">
          <mxGeometry y="104" width="320" height="26" as="geometry" />
        </mxCell>
        <mxCell id="96hk8IAAOX7AO58MwP5Q-158" value="QRCode : byte[]" style="text;strokeColor=none;fillColor=none;align=left;verticalAlign=top;spacingLeft=4;spacingRight=4;overflow=hidden;rotatable=0;points=[[0,0.5],[1,0.5]];portConstraint=eastwest;fontFamily=Verdana;" vertex="1" parent="96hk8IAAOX7AO58MwP5Q-153">
          <mxGeometry y="130" width="320" height="26" as="geometry" />
        </mxCell>
        <mxCell id="96hk8IAAOX7AO58MwP5Q-163" value="SubTypeId : int?" style="text;strokeColor=none;fillColor=none;align=left;verticalAlign=top;spacingLeft=4;spacingRight=4;overflow=hidden;rotatable=0;points=[[0,0.5],[1,0.5]];portConstraint=eastwest;fontFamily=Verdana;" vertex="1" parent="96hk8IAAOX7AO58MwP5Q-153">
          <mxGeometry y="156" width="320" height="26" as="geometry" />
        </mxCell>
        <mxCell id="96hk8IAAOX7AO58MwP5Q-164" value="SignatoryId : int" style="text;strokeColor=none;fillColor=none;align=left;verticalAlign=top;spacingLeft=4;spacingRight=4;overflow=hidden;rotatable=0;points=[[0,0.5],[1,0.5]];portConstraint=eastwest;fontFamily=Verdana;" vertex="1" parent="96hk8IAAOX7AO58MwP5Q-153">
          <mxGeometry y="182" width="320" height="26" as="geometry" />
        </mxCell>
        <mxCell id="96hk8IAAOX7AO58MwP5Q-166" value="PerformerId : int" style="text;strokeColor=none;fillColor=none;align=left;verticalAlign=top;spacingLeft=4;spacingRight=4;overflow=hidden;rotatable=0;points=[[0,0.5],[1,0.5]];portConstraint=eastwest;fontFamily=Verdana;" vertex="1" parent="96hk8IAAOX7AO58MwP5Q-153">
          <mxGeometry y="208" width="320" height="26" as="geometry" />
        </mxCell>
        <mxCell id="96hk8IAAOX7AO58MwP5Q-169" value="ApplicantTransferDate : DateTime?" style="text;strokeColor=none;fillColor=none;align=left;verticalAlign=top;spacingLeft=4;spacingRight=4;overflow=hidden;rotatable=0;points=[[0,0.5],[1,0.5]];portConstraint=eastwest;fontFamily=Verdana;" vertex="1" parent="96hk8IAAOX7AO58MwP5Q-153">
          <mxGeometry y="234" width="320" height="26" as="geometry" />
        </mxCell>
        <mxCell id="96hk8IAAOX7AO58MwP5Q-171" value="DtEndPlan : DateTime?" style="text;strokeColor=none;fillColor=none;align=left;verticalAlign=top;spacingLeft=4;spacingRight=4;overflow=hidden;rotatable=0;points=[[0,0.5],[1,0.5]];portConstraint=eastwest;fontFamily=Verdana;" vertex="1" parent="96hk8IAAOX7AO58MwP5Q-153">
          <mxGeometry y="260" width="320" height="26" as="geometry" />
        </mxCell>
        <mxCell id="96hk8IAAOX7AO58MwP5Q-173" value="DtEndFact : DateTime?" style="text;strokeColor=none;fillColor=none;align=left;verticalAlign=top;spacingLeft=4;spacingRight=4;overflow=hidden;rotatable=0;points=[[0,0.5],[1,0.5]];portConstraint=eastwest;fontFamily=Verdana;" vertex="1" parent="96hk8IAAOX7AO58MwP5Q-153">
          <mxGeometry y="286" width="320" height="26" as="geometry" />
        </mxCell>
        <mxCell id="96hk8IAAOX7AO58MwP5Q-175" value="DtHandedFact : DateTime?" style="text;strokeColor=none;fillColor=none;align=left;verticalAlign=top;spacingLeft=4;spacingRight=4;overflow=hidden;rotatable=0;points=[[0,0.5],[1,0.5]];portConstraint=eastwest;fontFamily=Verdana;" vertex="1" parent="96hk8IAAOX7AO58MwP5Q-153">
          <mxGeometry y="312" width="320" height="26" as="geometry" />
        </mxCell>
        <mxCell id="96hk8IAAOX7AO58MwP5Q-177" value="HandedFactUserId : int?" style="text;strokeColor=none;fillColor=none;align=left;verticalAlign=top;spacingLeft=4;spacingRight=4;overflow=hidden;rotatable=0;points=[[0,0.5],[1,0.5]];portConstraint=eastwest;fontFamily=Verdana;" vertex="1" parent="96hk8IAAOX7AO58MwP5Q-153">
          <mxGeometry y="338" width="320" height="26" as="geometry" />
        </mxCell>
        <mxCell id="96hk8IAAOX7AO58MwP5Q-179" value="RequestFileFgbu : int?" style="text;strokeColor=none;fillColor=none;align=left;verticalAlign=top;spacingLeft=4;spacingRight=4;overflow=hidden;rotatable=0;points=[[0,0.5],[1,0.5]];portConstraint=eastwest;fontFamily=Verdana;" vertex="1" parent="96hk8IAAOX7AO58MwP5Q-153">
          <mxGeometry y="364" width="320" height="26" as="geometry" />
        </mxCell>
        <mxCell id="96hk8IAAOX7AO58MwP5Q-180" value="ApplicantFirstSeen : DateTime?" style="text;strokeColor=none;fillColor=none;align=left;verticalAlign=top;spacingLeft=4;spacingRight=4;overflow=hidden;rotatable=0;points=[[0,0.5],[1,0.5]];portConstraint=eastwest;fontFamily=Verdana;" vertex="1" parent="96hk8IAAOX7AO58MwP5Q-153">
          <mxGeometry y="390" width="320" height="26" as="geometry" />
        </mxCell>
        <mxCell id="96hk8IAAOX7AO58MwP5Q-160" value="" style="line;html=1;strokeWidth=1;align=left;verticalAlign=middle;spacingTop=-1;spacingLeft=3;spacingRight=3;rotatable=0;labelPosition=right;points=[];portConstraint=eastwest;fontFamily=Verdana;" vertex="1" parent="96hk8IAAOX7AO58MwP5Q-153">
          <mxGeometry y="416" width="320" height="8" as="geometry" />
        </mxCell>
        <mxCell id="96hk8IAAOX7AO58MwP5Q-161" value="..." style="text;align=left;verticalAlign=top;spacingLeft=4;spacingRight=4;overflow=hidden;rotatable=0;points=[[0,0.5],[1,0.5]];portConstraint=eastwest;fontFamily=Verdana;" vertex="1" parent="96hk8IAAOX7AO58MwP5Q-153">
          <mxGeometry y="424" width="320" height="26" as="geometry" />
        </mxCell>
        <mxCell id="96hk8IAAOX7AO58MwP5Q-162" value="Extends" style="endArrow=block;endSize=16;endFill=0;html=1;rounded=0;fontFamily=Verdana;edgeStyle=orthogonalEdgeStyle;exitX=0.5;exitY=0;exitDx=0;exitDy=0;" edge="1" parent="WIyWlLk6GJQsqaUBKTNV-1" source="96hk8IAAOX7AO58MwP5Q-153" target="zkfFHV4jXpPFQw0GAbJ--0">
          <mxGeometry width="160" relative="1" as="geometry">
            <mxPoint x="280" y="400" as="sourcePoint" />
            <mxPoint x="499" y="270" as="targetPoint" />
          </mxGeometry>
        </mxCell>
        <mxCell id="96hk8IAAOX7AO58MwP5Q-181" value="RegistrationResolution" style="swimlane;fontStyle=1;align=center;verticalAlign=top;childLayout=stackLayout;horizontal=1;startSize=26;horizontalStack=0;resizeParent=1;resizeParentMax=0;resizeLast=0;collapsible=1;marginBottom=0;strokeColor=#82b366;fontFamily=Verdana;fillColor=#d5e8d4;" vertex="1" parent="WIyWlLk6GJQsqaUBKTNV-1">
          <mxGeometry x="1140" y="892" width="400" height="164" as="geometry" />
        </mxCell>
        <mxCell id="96hk8IAAOX7AO58MwP5Q-185" value="+ ModuleID : int" style="text;strokeColor=none;fillColor=none;align=left;verticalAlign=top;spacingLeft=4;spacingRight=4;overflow=hidden;rotatable=0;points=[[0,0.5],[1,0.5]];portConstraint=eastwest;fontFamily=Verdana;" vertex="1" parent="96hk8IAAOX7AO58MwP5Q-181">
          <mxGeometry y="26" width="400" height="26" as="geometry" />
        </mxCell>
        <mxCell id="96hk8IAAOX7AO58MwP5Q-186" value="+ ResolutionTypeId : int" style="text;strokeColor=none;fillColor=none;align=left;verticalAlign=top;spacingLeft=4;spacingRight=4;overflow=hidden;rotatable=0;points=[[0,0.5],[1,0.5]];portConstraint=eastwest;fontFamily=Verdana;" vertex="1" parent="96hk8IAAOX7AO58MwP5Q-181">
          <mxGeometry y="52" width="400" height="26" as="geometry" />
        </mxCell>
        <mxCell id="96hk8IAAOX7AO58MwP5Q-187" value="+ ResolutionTypeCode : string" style="text;strokeColor=none;fillColor=none;align=left;verticalAlign=top;spacingLeft=4;spacingRight=4;overflow=hidden;rotatable=0;points=[[0,0.5],[1,0.5]];portConstraint=eastwest;fontFamily=Verdana;" vertex="1" parent="96hk8IAAOX7AO58MwP5Q-181">
          <mxGeometry y="78" width="400" height="26" as="geometry" />
        </mxCell>
        <mxCell id="96hk8IAAOX7AO58MwP5Q-182" value="+ Abbreviation : string" style="text;strokeColor=none;fillColor=none;align=left;verticalAlign=top;spacingLeft=4;spacingRight=4;overflow=hidden;rotatable=0;points=[[0,0.5],[1,0.5]];portConstraint=eastwest;fontFamily=Verdana;" vertex="1" parent="96hk8IAAOX7AO58MwP5Q-181">
          <mxGeometry y="104" width="400" height="26" as="geometry" />
        </mxCell>
        <mxCell id="96hk8IAAOX7AO58MwP5Q-183" value="" style="line;strokeWidth=1;fillColor=none;align=left;verticalAlign=middle;spacingTop=-1;spacingLeft=3;spacingRight=3;rotatable=0;labelPosition=right;points=[];portConstraint=eastwest;strokeColor=inherit;fontFamily=Verdana;" vertex="1" parent="96hk8IAAOX7AO58MwP5Q-181">
          <mxGeometry y="130" width="400" height="8" as="geometry" />
        </mxCell>
        <mxCell id="96hk8IAAOX7AO58MwP5Q-184" value="+ MakeOutNumber(int count, bool isFS, string postFix) : string" style="text;strokeColor=none;fillColor=none;align=left;verticalAlign=top;spacingLeft=4;spacingRight=4;overflow=hidden;rotatable=0;points=[[0,0.5],[1,0.5]];portConstraint=eastwest;fontFamily=Verdana;fontStyle=2" vertex="1" parent="96hk8IAAOX7AO58MwP5Q-181">
          <mxGeometry y="138" width="400" height="26" as="geometry" />
        </mxCell>
        <mxCell id="96hk8IAAOX7AO58MwP5Q-195" value="&lt;&lt;interface&gt;&gt;&#xa;IMakeOutNumber" style="swimlane;fontStyle=0;childLayout=stackLayout;horizontal=1;startSize=40;fillColor=none;horizontalStack=0;resizeParent=1;resizeParentMax=0;resizeLast=0;collapsible=1;marginBottom=0;fontFamily=Verdana;" vertex="1" parent="WIyWlLk6GJQsqaUBKTNV-1">
          <mxGeometry x="970" y="722" width="140" height="66" as="geometry" />
        </mxCell>
        <mxCell id="96hk8IAAOX7AO58MwP5Q-196" value="..." style="text;strokeColor=none;fillColor=none;align=left;verticalAlign=top;spacingLeft=4;spacingRight=4;overflow=hidden;rotatable=0;points=[[0,0.5],[1,0.5]];portConstraint=eastwest;fontFamily=Verdana;" vertex="1" parent="96hk8IAAOX7AO58MwP5Q-195">
          <mxGeometry y="40" width="140" height="26" as="geometry" />
        </mxCell>
        <mxCell id="96hk8IAAOX7AO58MwP5Q-197" value="" style="endArrow=block;dashed=1;endFill=0;endSize=12;html=1;rounded=0;fontFamily=Verdana;edgeStyle=orthogonalEdgeStyle;exitX=0.25;exitY=0;exitDx=0;exitDy=0;" edge="1" parent="WIyWlLk6GJQsqaUBKTNV-1" source="96hk8IAAOX7AO58MwP5Q-181" target="96hk8IAAOX7AO58MwP5Q-195">
          <mxGeometry width="160" relative="1" as="geometry">
            <mxPoint x="750.0000000000005" y="862" as="sourcePoint" />
            <mxPoint x="978.9999999999998" y="788.0000000000005" as="targetPoint" />
            <Array as="points">
              <mxPoint x="1240" y="852" />
              <mxPoint x="1040" y="852" />
            </Array>
          </mxGeometry>
        </mxCell>
        <mxCell id="96hk8IAAOX7AO58MwP5Q-198" value="Extends" style="endArrow=block;endSize=16;endFill=0;html=1;rounded=0;fontFamily=Verdana;edgeStyle=orthogonalEdgeStyle;exitX=0.5;exitY=0;exitDx=0;exitDy=0;" edge="1" parent="WIyWlLk6GJQsqaUBKTNV-1" source="96hk8IAAOX7AO58MwP5Q-181" target="96hk8IAAOX7AO58MwP5Q-199">
          <mxGeometry width="160" relative="1" as="geometry">
            <mxPoint x="1480" y="818" as="sourcePoint" />
            <mxPoint x="1319.9999999999998" y="752" as="targetPoint" />
            <Array as="points">
              <mxPoint x="1340" y="752" />
              <mxPoint x="1340" y="752" />
            </Array>
          </mxGeometry>
        </mxCell>
        <mxCell id="96hk8IAAOX7AO58MwP5Q-199" value="TemplateDocument" style="swimlane;fontStyle=1;align=center;verticalAlign=top;childLayout=stackLayout;horizontal=1;startSize=26;horizontalStack=0;resizeParent=1;resizeParentMax=0;resizeLast=0;collapsible=1;marginBottom=0;strokeColor=#82b366;fontFamily=Verdana;fillColor=#d5e8d4;" vertex="1" parent="WIyWlLk6GJQsqaUBKTNV-1">
          <mxGeometry x="1140" y="252" width="400" height="528" as="geometry" />
        </mxCell>
        <mxCell id="96hk8IAAOX7AO58MwP5Q-200" value="+ DocumentId : long" style="text;strokeColor=none;fillColor=none;align=left;verticalAlign=top;spacingLeft=4;spacingRight=4;overflow=hidden;rotatable=0;points=[[0,0.5],[1,0.5]];portConstraint=eastwest;fontFamily=Verdana;" vertex="1" parent="96hk8IAAOX7AO58MwP5Q-199">
          <mxGeometry y="26" width="400" height="26" as="geometry" />
        </mxCell>
        <mxCell id="96hk8IAAOX7AO58MwP5Q-201" value="+ Recipient : string" style="text;strokeColor=none;fillColor=none;align=left;verticalAlign=top;spacingLeft=4;spacingRight=4;overflow=hidden;rotatable=0;points=[[0,0.5],[1,0.5]];portConstraint=eastwest;fontFamily=Verdana;" vertex="1" parent="96hk8IAAOX7AO58MwP5Q-199">
          <mxGeometry y="52" width="400" height="26" as="geometry" />
        </mxCell>
        <mxCell id="96hk8IAAOX7AO58MwP5Q-202" value="+ FormOfAddressing : string" style="text;strokeColor=none;fillColor=none;align=left;verticalAlign=top;spacingLeft=4;spacingRight=4;overflow=hidden;rotatable=0;points=[[0,0.5],[1,0.5]];portConstraint=eastwest;fontFamily=Verdana;" vertex="1" parent="96hk8IAAOX7AO58MwP5Q-199">
          <mxGeometry y="78" width="400" height="26" as="geometry" />
        </mxCell>
        <mxCell id="96hk8IAAOX7AO58MwP5Q-203" value="+ DrugFormText : string [DrugFmDocs]" style="text;strokeColor=none;fillColor=none;align=left;verticalAlign=top;spacingLeft=4;spacingRight=4;overflow=hidden;rotatable=0;points=[[0,0.5],[1,0.5]];portConstraint=eastwest;fontFamily=Verdana;" vertex="1" parent="96hk8IAAOX7AO58MwP5Q-199">
          <mxGeometry y="104" width="400" height="26" as="geometry" />
        </mxCell>
        <mxCell id="96hk8IAAOX7AO58MwP5Q-206" value="+ TradeName : string [TradeNmR]" style="text;strokeColor=none;fillColor=none;align=left;verticalAlign=top;spacingLeft=4;spacingRight=4;overflow=hidden;rotatable=0;points=[[0,0.5],[1,0.5]];portConstraint=eastwest;fontFamily=Verdana;" vertex="1" parent="96hk8IAAOX7AO58MwP5Q-199">
          <mxGeometry y="130" width="400" height="26" as="geometry" />
        </mxCell>
        <mxCell id="96hk8IAAOX7AO58MwP5Q-208" value="+ RegistrationCertificate" style="text;strokeColor=none;fillColor=none;align=left;verticalAlign=top;spacingLeft=4;spacingRight=4;overflow=hidden;rotatable=0;points=[[0,0.5],[1,0.5]];portConstraint=eastwest;fontFamily=Verdana;" vertex="1" parent="96hk8IAAOX7AO58MwP5Q-199">
          <mxGeometry y="156" width="400" height="26" as="geometry" />
        </mxCell>
        <mxCell id="96hk8IAAOX7AO58MwP5Q-207" value="+ Flow : DocumentFlow" style="text;strokeColor=none;fillColor=none;align=left;verticalAlign=top;spacingLeft=4;spacingRight=4;overflow=hidden;rotatable=0;points=[[0,0.5],[1,0.5]];portConstraint=eastwest;fontFamily=Verdana;" vertex="1" parent="96hk8IAAOX7AO58MwP5Q-199">
          <mxGeometry y="182" width="400" height="26" as="geometry" />
        </mxCell>
        <mxCell id="96hk8IAAOX7AO58MwP5Q-214" value="+ Developer : OldOrganization" style="text;strokeColor=none;fillColor=none;align=left;verticalAlign=top;spacingLeft=4;spacingRight=4;overflow=hidden;rotatable=0;points=[[0,0.5],[1,0.5]];portConstraint=eastwest;fontFamily=Verdana;" vertex="1" parent="96hk8IAAOX7AO58MwP5Q-199">
          <mxGeometry y="208" width="400" height="26" as="geometry" />
        </mxCell>
        <mxCell id="96hk8IAAOX7AO58MwP5Q-216" value="+ AlternativeDevelopePlace : string " style="text;strokeColor=none;fillColor=none;align=left;verticalAlign=top;spacingLeft=4;spacingRight=4;overflow=hidden;rotatable=0;points=[[0,0.5],[1,0.5]];portConstraint=eastwest;fontFamily=Verdana;" vertex="1" parent="96hk8IAAOX7AO58MwP5Q-199">
          <mxGeometry y="234" width="400" height="26" as="geometry" />
        </mxCell>
        <mxCell id="96hk8IAAOX7AO58MwP5Q-215" value="+ RegistrationOwner : OldOrganization" style="text;strokeColor=none;fillColor=none;align=left;verticalAlign=top;spacingLeft=4;spacingRight=4;overflow=hidden;rotatable=0;points=[[0,0.5],[1,0.5]];portConstraint=eastwest;fontFamily=Verdana;" vertex="1" parent="96hk8IAAOX7AO58MwP5Q-199">
          <mxGeometry y="260" width="400" height="26" as="geometry" />
        </mxCell>
        <mxCell id="96hk8IAAOX7AO58MwP5Q-213" value="+ Signatory : OldUser" style="text;strokeColor=none;fillColor=none;align=left;verticalAlign=top;spacingLeft=4;spacingRight=4;overflow=hidden;rotatable=0;points=[[0,0.5],[1,0.5]];portConstraint=eastwest;fontFamily=Verdana;" vertex="1" parent="96hk8IAAOX7AO58MwP5Q-199">
          <mxGeometry y="286" width="400" height="26" as="geometry" />
        </mxCell>
        <mxCell id="96hk8IAAOX7AO58MwP5Q-218" value="+ Performer : OldUser" style="text;strokeColor=none;fillColor=none;align=left;verticalAlign=top;spacingLeft=4;spacingRight=4;overflow=hidden;rotatable=0;points=[[0,0.5],[1,0.5]];portConstraint=eastwest;fontFamily=Verdana;" vertex="1" parent="96hk8IAAOX7AO58MwP5Q-199">
          <mxGeometry y="312" width="400" height="26" as="geometry" />
        </mxCell>
        <mxCell id="96hk8IAAOX7AO58MwP5Q-219" value="+ RegistryRecordNumber : string [RegNumber]" style="text;strokeColor=none;fillColor=none;align=left;verticalAlign=top;spacingLeft=4;spacingRight=4;overflow=hidden;rotatable=0;points=[[0,0.5],[1,0.5]];portConstraint=eastwest;fontFamily=Verdana;" vertex="1" parent="96hk8IAAOX7AO58MwP5Q-199">
          <mxGeometry y="338" width="400" height="26" as="geometry" />
        </mxCell>
        <mxCell id="96hk8IAAOX7AO58MwP5Q-217" value="+ RegistryRecordDate : DateTime? [RegDate]" style="text;strokeColor=none;fillColor=none;align=left;verticalAlign=top;spacingLeft=4;spacingRight=4;overflow=hidden;rotatable=0;points=[[0,0.5],[1,0.5]];portConstraint=eastwest;fontFamily=Verdana;" vertex="1" parent="96hk8IAAOX7AO58MwP5Q-199">
          <mxGeometry y="364" width="400" height="26" as="geometry" />
        </mxCell>
        <mxCell id="96hk8IAAOX7AO58MwP5Q-221" value="+ GeneralText : string" style="text;strokeColor=none;fillColor=none;align=left;verticalAlign=top;spacingLeft=4;spacingRight=4;overflow=hidden;rotatable=0;points=[[0,0.5],[1,0.5]];portConstraint=eastwest;fontFamily=Verdana;" vertex="1" parent="96hk8IAAOX7AO58MwP5Q-199">
          <mxGeometry y="390" width="400" height="26" as="geometry" />
        </mxCell>
        <mxCell id="96hk8IAAOX7AO58MwP5Q-222" value="+ NormativeDocs : string [NdNr]" style="text;strokeColor=none;fillColor=none;align=left;verticalAlign=top;spacingLeft=4;spacingRight=4;overflow=hidden;rotatable=0;points=[[0,0.5],[1,0.5]];portConstraint=eastwest;fontFamily=Verdana;" vertex="1" parent="96hk8IAAOX7AO58MwP5Q-199">
          <mxGeometry y="416" width="400" height="26" as="geometry" />
        </mxCell>
        <mxCell id="96hk8IAAOX7AO58MwP5Q-223" value="+ ResolutionTypeName : string" style="text;strokeColor=none;fillColor=none;align=left;verticalAlign=top;spacingLeft=4;spacingRight=4;overflow=hidden;rotatable=0;points=[[0,0.5],[1,0.5]];portConstraint=eastwest;fontFamily=Verdana;" vertex="1" parent="96hk8IAAOX7AO58MwP5Q-199">
          <mxGeometry y="442" width="400" height="26" as="geometry" />
        </mxCell>
        <mxCell id="96hk8IAAOX7AO58MwP5Q-224" value="+ Enclosures : List&lt;ResolutionEnclosure&gt; [Enclosures]" style="text;strokeColor=none;fillColor=none;align=left;verticalAlign=top;spacingLeft=4;spacingRight=4;overflow=hidden;rotatable=0;points=[[0,0.5],[1,0.5]];portConstraint=eastwest;fontFamily=Verdana;" vertex="1" parent="96hk8IAAOX7AO58MwP5Q-199">
          <mxGeometry y="468" width="400" height="26" as="geometry" />
        </mxCell>
        <mxCell id="96hk8IAAOX7AO58MwP5Q-220" value="..." style="text;strokeColor=none;fillColor=none;align=left;verticalAlign=top;spacingLeft=4;spacingRight=4;overflow=hidden;rotatable=0;points=[[0,0.5],[1,0.5]];portConstraint=eastwest;fontFamily=Verdana;" vertex="1" parent="96hk8IAAOX7AO58MwP5Q-199">
          <mxGeometry y="494" width="400" height="26" as="geometry" />
        </mxCell>
        <mxCell id="96hk8IAAOX7AO58MwP5Q-204" value="" style="line;strokeWidth=1;fillColor=none;align=left;verticalAlign=middle;spacingTop=-1;spacingLeft=3;spacingRight=3;rotatable=0;labelPosition=right;points=[];portConstraint=eastwest;strokeColor=inherit;fontFamily=Verdana;" vertex="1" parent="96hk8IAAOX7AO58MwP5Q-199">
          <mxGeometry y="520" width="400" height="8" as="geometry" />
        </mxCell>
        <mxCell id="96hk8IAAOX7AO58MwP5Q-209" value="RegistrationCertificate" style="swimlane;fontStyle=0;childLayout=stackLayout;horizontal=1;startSize=26;fillColor=none;horizontalStack=0;resizeParent=1;resizeParentMax=0;resizeLast=0;collapsible=1;marginBottom=0;fontFamily=Verdana;" vertex="1" parent="WIyWlLk6GJQsqaUBKTNV-1">
          <mxGeometry x="1660" y="362" width="200" height="52" as="geometry" />
        </mxCell>
        <mxCell id="96hk8IAAOX7AO58MwP5Q-210" value="+ ..." style="text;strokeColor=none;fillColor=none;align=left;verticalAlign=top;spacingLeft=4;spacingRight=4;overflow=hidden;rotatable=0;points=[[0,0.5],[1,0.5]];portConstraint=eastwest;fontFamily=Verdana;" vertex="1" parent="96hk8IAAOX7AO58MwP5Q-209">
          <mxGeometry y="26" width="200" height="26" as="geometry" />
        </mxCell>
        <mxCell id="96hk8IAAOX7AO58MwP5Q-212" style="edgeStyle=orthogonalEdgeStyle;rounded=0;orthogonalLoop=1;jettySize=auto;html=1;fontFamily=Verdana;exitX=1;exitY=0.5;exitDx=0;exitDy=0;" edge="1" parent="WIyWlLk6GJQsqaUBKTNV-1" source="96hk8IAAOX7AO58MwP5Q-208" target="96hk8IAAOX7AO58MwP5Q-209">
          <mxGeometry relative="1" as="geometry">
            <Array as="points">
              <mxPoint x="1580" y="421" />
              <mxPoint x="1580" y="372" />
            </Array>
          </mxGeometry>
        </mxCell>
        <mxCell id="96hk8IAAOX7AO58MwP5Q-227" value="&lt;&lt;interface&gt;&gt;&#xa;ICoreDocumentLink" style="swimlane;fontStyle=0;childLayout=stackLayout;horizontal=1;startSize=40;fillColor=none;horizontalStack=0;resizeParent=1;resizeParentMax=0;resizeLast=0;collapsible=1;marginBottom=0;fontFamily=Verdana;" vertex="1" parent="WIyWlLk6GJQsqaUBKTNV-1">
          <mxGeometry x="760" y="112" width="140" height="66" as="geometry" />
        </mxCell>
        <mxCell id="96hk8IAAOX7AO58MwP5Q-228" value="..." style="text;strokeColor=none;fillColor=none;align=left;verticalAlign=top;spacingLeft=4;spacingRight=4;overflow=hidden;rotatable=0;points=[[0,0.5],[1,0.5]];portConstraint=eastwest;fontFamily=Verdana;" vertex="1" parent="96hk8IAAOX7AO58MwP5Q-227">
          <mxGeometry y="40" width="140" height="26" as="geometry" />
        </mxCell>
        <mxCell id="96hk8IAAOX7AO58MwP5Q-229" value="&lt;&lt;interface&gt;&gt;&#xa;IDocumentKindChangeable" style="swimlane;fontStyle=0;childLayout=stackLayout;horizontal=1;startSize=40;fillColor=none;horizontalStack=0;resizeParent=1;resizeParentMax=0;resizeLast=0;collapsible=1;marginBottom=0;fontFamily=Verdana;" vertex="1" parent="WIyWlLk6GJQsqaUBKTNV-1">
          <mxGeometry x="910" y="112" width="190" height="66" as="geometry" />
        </mxCell>
        <mxCell id="96hk8IAAOX7AO58MwP5Q-230" value="..." style="text;strokeColor=none;fillColor=none;align=left;verticalAlign=top;spacingLeft=4;spacingRight=4;overflow=hidden;rotatable=0;points=[[0,0.5],[1,0.5]];portConstraint=eastwest;fontFamily=Verdana;" vertex="1" parent="96hk8IAAOX7AO58MwP5Q-229">
          <mxGeometry y="40" width="190" height="26" as="geometry" />
        </mxCell>
        <mxCell id="96hk8IAAOX7AO58MwP5Q-231" value="ResolutionBase" style="swimlane;fontStyle=3;align=center;verticalAlign=top;childLayout=stackLayout;horizontal=1;startSize=26;horizontalStack=0;resizeParent=1;resizeParentMax=0;resizeLast=0;collapsible=1;marginBottom=0;strokeColor=#82b366;fontFamily=Verdana;fillColor=#d5e8d4;" vertex="1" parent="WIyWlLk6GJQsqaUBKTNV-1">
          <mxGeometry x="1140" y="142" width="400" height="34" as="geometry" />
        </mxCell>
        <mxCell id="96hk8IAAOX7AO58MwP5Q-251" value="" style="line;strokeWidth=1;fillColor=none;align=left;verticalAlign=middle;spacingTop=-1;spacingLeft=3;spacingRight=3;rotatable=0;labelPosition=right;points=[];portConstraint=eastwest;strokeColor=inherit;fontFamily=Verdana;" vertex="1" parent="96hk8IAAOX7AO58MwP5Q-231">
          <mxGeometry y="26" width="400" height="8" as="geometry" />
        </mxCell>
        <mxCell id="96hk8IAAOX7AO58MwP5Q-253" value="Extends" style="endArrow=block;endSize=16;endFill=0;html=1;rounded=0;fontFamily=Verdana;edgeStyle=orthogonalEdgeStyle;exitX=0.5;exitY=0;exitDx=0;exitDy=0;" edge="1" parent="WIyWlLk6GJQsqaUBKTNV-1" source="96hk8IAAOX7AO58MwP5Q-199" target="96hk8IAAOX7AO58MwP5Q-231">
          <mxGeometry width="160" relative="1" as="geometry">
            <mxPoint x="1590" y="301.94000000000005" as="sourcePoint" />
            <mxPoint x="1590" y="189.94000000000005" as="targetPoint" />
            <Array as="points">
              <mxPoint x="1340" y="162" />
              <mxPoint x="1340" y="162" />
            </Array>
          </mxGeometry>
        </mxCell>
        <mxCell id="96hk8IAAOX7AO58MwP5Q-254" value="" style="endArrow=block;dashed=1;endFill=0;endSize=12;html=1;rounded=0;fontFamily=Verdana;edgeStyle=orthogonalEdgeStyle;exitX=0.25;exitY=0;exitDx=0;exitDy=0;" edge="1" parent="WIyWlLk6GJQsqaUBKTNV-1" source="96hk8IAAOX7AO58MwP5Q-199" target="96hk8IAAOX7AO58MwP5Q-227">
          <mxGeometry width="160" relative="1" as="geometry">
            <mxPoint x="1104.92" y="306" as="sourcePoint" />
            <mxPoint x="904.9969230769228" y="202.00000000000045" as="targetPoint" />
            <Array as="points">
              <mxPoint x="1240" y="232" />
              <mxPoint x="830" y="232" />
            </Array>
          </mxGeometry>
        </mxCell>
        <mxCell id="96hk8IAAOX7AO58MwP5Q-255" value="" style="endArrow=block;dashed=1;endFill=0;endSize=12;html=1;rounded=0;fontFamily=Verdana;edgeStyle=orthogonalEdgeStyle;exitX=0.25;exitY=0;exitDx=0;exitDy=0;" edge="1" parent="WIyWlLk6GJQsqaUBKTNV-1" source="96hk8IAAOX7AO58MwP5Q-199" target="96hk8IAAOX7AO58MwP5Q-229">
          <mxGeometry width="160" relative="1" as="geometry">
            <mxPoint x="1250" y="262" as="sourcePoint" />
            <mxPoint x="840.037037037037" y="187.99999999999977" as="targetPoint" />
            <Array as="points">
              <mxPoint x="1240" y="232" />
              <mxPoint x="1010" y="232" />
            </Array>
          </mxGeometry>
        </mxCell>
        <mxCell id="96hk8IAAOX7AO58MwP5Q-256" value="Extends" style="endArrow=block;endSize=16;endFill=0;html=1;rounded=0;fontFamily=Verdana;exitX=0.5;exitY=0;exitDx=0;exitDy=0;edgeStyle=orthogonalEdgeStyle;" edge="1" parent="WIyWlLk6GJQsqaUBKTNV-1" source="96hk8IAAOX7AO58MwP5Q-231" target="96hk8IAAOX7AO58MwP5Q-30">
          <mxGeometry width="160" relative="1" as="geometry">
            <mxPoint x="210" y="130" as="sourcePoint" />
            <mxPoint x="80" y="-78" as="targetPoint" />
            <Array as="points">
              <mxPoint x="1340" />
              <mxPoint x="70" />
            </Array>
          </mxGeometry>
        </mxCell>
      </root>
    </mxGraphModel>
  </diagram>
</mxfile>
